<svg id="_002-sunbed" data-name="002-sunbed" xmlns="http://www.w3.org/2000/svg" width="55.798" height="55.798" viewBox="0 0 55.798 55.798">
  <g id="a241c6b5-85da-4580-b499-3ea96d9c338d" transform="translate(0)">
    <g id="aa21ca35-5bc6-4aab-b5e0-361f3c661f1b">
      <path id="Path_18741" data-name="Path 18741" d="M54.469,41.18A3.843,3.843,0,0,0,55.8,38.361C55.8,35.916,53.314,34,50.143,34H36.617V15.5a8.045,8.045,0,0,0,3.119.594c2.537,0,4.686-1.03,5.47-2.624l1.122-2.28h.066l.166.927a3.7,3.7,0,0,0,3.763,2.887,3.645,3.645,0,0,0,3.814-3.436V10.353a1.09,1.09,0,0,0-.218-.937L53.9,9.387a23.191,23.191,0,0,0-3.342-3.394A26.952,26.952,0,0,0,33.348,0,26.947,26.947,0,0,0,16.142,5.994a23.257,23.257,0,0,0-3.364,3.422.071.071,0,0,0-.011.014c-.017.022-.035.045-.049.066a1.081,1.081,0,0,0-.178.712v1.364c0,1.9,1.877,3.436,4.184,3.436a4.01,4.01,0,0,0,4.126-2.862l.132-.648.628,1.689c.654,1.744,2.9,2.911,5.594,2.911a8.188,8.188,0,0,0,2.875-.495V34H19.025L7.574,20.882a4.178,4.178,0,0,0-2.957-1.431A4.359,4.359,0,0,0,1.5,20.54a4.337,4.337,0,0,0-.46,6.085L13.186,40.54H3.269A3.27,3.27,0,0,0,0,43.81V44.9a3.269,3.269,0,0,0,3.269,3.269H7.754L4.491,54.188a1.09,1.09,0,0,0,.958,1.61H8.807a1.09,1.09,0,0,0,.763-.311l7.487-7.318H30.078v4.359a3.269,3.269,0,1,0,6.539,0V48.169h2.124l7.488,7.318a1.09,1.09,0,0,0,.763.311h3.357a1.09,1.09,0,0,0,.958-1.61l-3.263-6.019h4.484A3.269,3.269,0,0,0,55.8,44.9V43.81a3.269,3.269,0,0,0-1.328-2.63ZM23.649,12.424l-.81-2.18a1.888,1.888,0,0,0-1.762-1.229H20.8a1.886,1.886,0,0,0-1.843,1.506l-.242,1.192a1.951,1.951,0,0,1-1.99,1.116c-1.181,0-2-.663-2-1.257v-1.09a21.125,21.125,0,0,1,2.812-2.807,24.757,24.757,0,0,1,15.816-5.5A24.762,24.762,0,0,1,49.164,7.674a21.041,21.041,0,0,1,2.791,2.788v1.116a1.5,1.5,0,0,1-1.635,1.257,1.563,1.563,0,0,1-1.618-1.09l-.206-1.18a1.878,1.878,0,0,0-1.853-1.55h-.5a1.867,1.867,0,0,0-1.686,1.049l-1.205,2.447c-.336.682-1.683,1.408-3.515,1.408-1.876,0-3.278-.763-3.551-1.492l-.814-2.183a1.888,1.888,0,0,0-1.762-1.229,1.867,1.867,0,0,0-1.686,1.049l-1.205,2.447c-.336.682-1.683,1.408-3.515,1.408-1.875,0-3.278-.759-3.555-1.5Zm8.609,1.69a3.434,3.434,0,0,0,.415-.643l.9-1.823.571,1.537a3.219,3.219,0,0,0,.3.591V34h-2.18V14.114ZM2.681,25.194a2.144,2.144,0,0,1,.258-3.013,2.18,2.18,0,0,1,1.566-.553,2.011,2.011,0,0,1,1.428.688L17.708,35.809a1.09,1.09,0,0,0,.818.373H50.143c1.884,0,3.475,1,3.475,2.18a1.89,1.89,0,0,1-.883,1.425,4.538,4.538,0,0,1-2.593.754H16.073ZM8.362,53.618H7.28l2.953-5.449h3.705Zm26.076-1.09a1.09,1.09,0,1,1-2.18,0V48.169h2.18v4.359Zm14.08,1.09H47.436L41.86,48.169h3.705Zm5.1-8.718a1.09,1.09,0,0,1-1.09,1.09H3.269A1.09,1.09,0,0,1,2.18,44.9V43.81a1.09,1.09,0,0,1,1.09-1.09H52.528a1.09,1.09,0,0,1,1.09,1.09Z" transform="translate(0)" fill="#009d88"/>
    </g>
  </g>
</svg>
