<svg id="_003-field" data-name="003-field" xmlns="http://www.w3.org/2000/svg" width="57.88" height="55.797" viewBox="0 0 57.88 55.797">
  <path id="Path_18742" data-name="Path 18742" d="M58.42,73.317,45.908,66.223V63.312h2.053a4.423,4.423,0,0,0,4.418-4.418v-.979a1.61,1.61,0,0,0-1.608-1.608H48.624a4.395,4.395,0,0,0-2.715.937s-.02-5.781-.054-6.051H49.11a8.739,8.739,0,0,0,3.677-.8.851.851,0,1,0-.711-1.547,7.049,7.049,0,0,1-2.966.649h-3.2v-1.3a7.117,7.117,0,0,1,7.109-7.109h3.2v1.3a7.035,7.035,0,0,1-1.513,4.381.851.851,0,0,0,1.34,1.05,8.723,8.723,0,0,0,1.876-5.432V40.838a1.466,1.466,0,0,0-1.464-1.464h-3.44a8.822,8.822,0,0,0-8.793,8.262,6.539,6.539,0,0,0-4.871-2.174H36.633a1.346,1.346,0,0,0-1.345,1.345v1.965a6.562,6.562,0,0,0,6.554,6.554h2.363v9.931l-13.26-7.518v-1.8h1.214A2.84,2.84,0,0,0,35,53.107v-.84a1.618,1.618,0,0,0-1.616-1.616h-1.3a2.817,2.817,0,0,0-1.3.316,2.841,2.841,0,0,0-2.672-1.887h-1.3A1.618,1.618,0,0,0,25.193,50.7v.84a2.839,2.839,0,0,0,2.836,2.836h1.214v3.481L14.192,66.386V62.316h1.184a3.672,3.672,0,0,0,3.668-3.668v-1a1.56,1.56,0,0,0-1.558-1.558H16.158A3.671,3.671,0,0,0,12.9,58.087,4.775,4.775,0,0,0,9.4,56.57H8.115a1.574,1.574,0,0,0-1.572,1.572V59.43a4.794,4.794,0,0,0,4.788,4.788H12.49v3.133L9.171,69.233a.851.851,0,1,0,.84,1.481l2.479-1.406v5.524a.851.851,0,0,0,1.7,0V68.343l3.174-1.8,11.06,6.271L14.392,80.771,3.479,74.417l3.088-1.751a.851.851,0,0,0-.84-1.481L1.968,73.317A1.259,1.259,0,0,0,1.955,75.5l12.007,6.991h0l15.6,9.081a1.261,1.261,0,0,0,1.267,0L51.14,79.746a.851.851,0,1,0-.857-1.471L45.954,80.8,31.877,72.814l11.1-6.3,1.226.7v6.427a.851.851,0,1,0,1.7,0V68.18l11,6.238-3.221,1.875a.851.851,0,1,0,.857,1.471L58.433,75.5a1.259,1.259,0,0,0-.012-2.183Zm-9.8-15.308h2.053v.885a2.719,2.719,0,0,1-2.715,2.716H45.908v-.885A2.719,2.719,0,0,1,48.624,58.009Zm-6.781-4.385a4.857,4.857,0,0,1-4.852-4.852V47.165h2.363a4.858,4.858,0,0,1,4.852,4.852v1.607Zm-27.65,6.138A1.968,1.968,0,0,1,16.158,57.8h1.184v.851a1.968,1.968,0,0,1-1.966,1.965H14.192Zm-2.86,2.754A3.089,3.089,0,0,1,8.246,59.43V58.272H9.4a3.089,3.089,0,0,1,3.086,3.086v1.158ZM32.08,52.353h1.214v.754a1.135,1.135,0,0,1-1.134,1.134H30.946v-.754a1.135,1.135,0,0,1,1.134-1.134ZM26.9,51.535v-.754H28.11a1.135,1.135,0,0,1,1.134,1.134v.754H28.03A1.135,1.135,0,0,1,26.9,51.535ZM44.251,81.787,30.194,89.972l-14.1-8.209,14.057-7.97Zm-14.1-9.952-11.06-6.271,10.152-5.756v5.756a.851.851,0,0,0,1.7,0V59.7l10.308,5.845Z" transform="translate(-1.179 -35.946)" fill="#009d88"/>
  <path id="Path_18743" data-name="Path 18743" d="M214.431,388.906h1.214v1.943a.851.851,0,0,0,1.7,0v-1.943h1.078a2.676,2.676,0,0,0,2.673-2.673v-.752a1.412,1.412,0,0,0-1.41-1.41h-1.37a2.659,2.659,0,0,0-1.633.559,2.831,2.831,0,0,0-2.174-1.017h-1.3a1.618,1.618,0,0,0-1.616,1.616v.84A2.84,2.84,0,0,0,214.431,388.906Zm3.886-3.132H219.4v.46a.971.971,0,0,1-.97.97h-1.078v-.46A.971.971,0,0,1,218.318,385.773Zm-5.02-.458h1.214a1.135,1.135,0,0,1,1.134,1.134v.754h-1.214a1.135,1.135,0,0,1-1.134-1.134Z" transform="translate(-187.58 -341.116)" fill="#009d88"/>
  <path id="Path_18744" data-name="Path 18744" d="M3.721,16.614a3.727,3.727,0,0,0,3.621-2.87h4.467l8.828,8.829a.851.851,0,0,0,1.2-1.2l-9.078-9.078a.851.851,0,0,0-.6-.249H7.343a3.721,3.721,0,1,0-3.622,4.572Zm0-5.739A2.019,2.019,0,1,1,1.7,12.893,2.021,2.021,0,0,1,3.721,10.874Z" transform="translate(0 -9.172)" fill="#009d88"/>
  <path id="Path_18745" data-name="Path 18745" d="M64.259,90.863H59.617a.851.851,0,1,0,0,1.7h4.641a.851.851,0,1,0,0-1.7Z" transform="translate(-52.096 -81.592)" fill="#009d88"/>
  <path id="Path_18746" data-name="Path 18746" d="M24.842,121.984H15.154a.851.851,0,1,0,0,1.7h9.688a.851.851,0,1,0,0-1.7Z" transform="translate(-12.68 -109.181)" fill="#009d88"/>
  <path id="Path_18747" data-name="Path 18747" d="M24.842,153.1H15.154a.851.851,0,0,0,0,1.7h9.688a.851.851,0,0,0,0-1.7Z" transform="translate(-12.68 -136.77)" fill="#009d88"/>
  <path id="Path_18748" data-name="Path 18748" d="M15.154,92.565h1.976a.851.851,0,1,0,0-1.7H15.154a.851.851,0,0,0,0,1.7Z" transform="translate(-12.68 -81.592)" fill="#009d88"/>
</svg>
