<svg id="_009-road-trip" data-name="009-road-trip" xmlns="http://www.w3.org/2000/svg" width="60.027" height="53.274" viewBox="0 0 60.027 53.274">
  <path id="Path_18772" data-name="Path 18772" d="M72.621,193.807H83.305a2.461,2.461,0,0,0,2.458-2.458v-8.833a2.461,2.461,0,0,0-2.458-2.458H74.464a1.832,1.832,0,0,0-1.77,1.365l-2.451,9.3A2.458,2.458,0,0,0,72.621,193.807Zm-.677-2.637,2.451-9.3a.072.072,0,0,1,.069-.054h8.841a.7.7,0,0,1,.7.7v8.833a.7.7,0,0,1-.7.7H72.621A.7.7,0,0,1,71.944,191.171Z" transform="translate(-61.935 -162.324)" fill="#009d88"/>
  <path id="Path_18773" data-name="Path 18773" d="M234.7,181.816h8.515a.072.072,0,0,1,.069.054l.662,2.514a.879.879,0,1,0,1.7-.448l-.662-2.514a1.831,1.831,0,0,0-1.769-1.364H234.7a2.461,2.461,0,0,0-2.458,2.458v8.833a2.461,2.461,0,0,0,2.458,2.458h10.358a2.431,2.431,0,0,0,1.942-.956,2.469,2.469,0,0,0,.427-2.157l-.863-3.277a.879.879,0,1,0-1.7.448l.865,3.282a.722.722,0,0,1-.123.631.678.678,0,0,1-.547.269H234.7a.7.7,0,0,1-.7-.7v-8.833a.7.7,0,0,1,.7-.7Z" transform="translate(-205.01 -162.324)" fill="#009d88"/>
  <path id="Path_18774" data-name="Path 18774" d="M112.532,378.589a3.876,3.876,0,1,0,3.876,3.876A3.88,3.88,0,0,0,112.532,378.589Zm0,5.994a2.117,2.117,0,1,1,2.117-2.117A2.12,2.12,0,0,1,112.532,384.583Z" transform="translate(-95.917 -337.58)" fill="#009d88"/>
  <path id="Path_18775" data-name="Path 18775" d="M325.811,378.589a3.876,3.876,0,1,0,3.876,3.876A3.88,3.88,0,0,0,325.811,378.589Zm0,5.994a2.117,2.117,0,1,1,2.117-2.117A2.12,2.12,0,0,1,325.811,384.583Z" transform="translate(-284.191 -337.58)" fill="#009d88"/>
  <path id="Path_18776" data-name="Path 18776" d="M55.037,57.212H49a1.8,1.8,0,0,1-1.735-1.337L44.823,46.62a6.836,6.836,0,0,0-2.384-3.632,3.789,3.789,0,0,0,2.228-2.608h3.217a2.972,2.972,0,0,0,0-5.943H44.667A3.78,3.78,0,0,0,41,31.542H35.8a3.621,3.621,0,0,0-7.026,0H21.086a3.621,3.621,0,0,0-7.026,0h-5.2a3.778,3.778,0,0,0-3.774,3.774V39.5a3.78,3.78,0,0,0,2.964,3.686A6.832,6.832,0,0,0,5.908,46.62L3.943,54.078a.879.879,0,1,0,1.7.448l1.965-7.458a5.092,5.092,0,0,1,4.921-3.793H38.2a5.092,5.092,0,0,1,4.921,3.793l2.438,9.254A3.555,3.555,0,0,0,49,58.97h6.041a3.237,3.237,0,0,1,3.11,2.353H56.672a2.992,2.992,0,0,0-2.989,2.989v1.712a2.992,2.992,0,0,0,2.989,2.988h1.6v.661a3.237,3.237,0,0,1-3.232,3.234H49.973A8.4,8.4,0,0,0,41.621,65.3h0a8.4,8.4,0,0,0-8.352,7.609h-8.3a8.389,8.389,0,0,0-16.705,0H5a3.232,3.232,0,0,1-3.164-3.894H4.474a2.992,2.992,0,0,0,2.989-2.988V64.312a2.992,2.992,0,0,0-2.989-2.989H3.852l.864-3.28a.879.879,0,0,0-1.7-.448L.168,68.4A4.991,4.991,0,0,0,5,74.665H8.286a8.387,8.387,0,0,0,16.659,0h8.346a8.387,8.387,0,0,0,16.659,0h5.087a5,5,0,0,0,4.991-4.992V62.2a5,5,0,0,0-4.991-4.991Zm-5.94-19.8a1.214,1.214,0,0,1-1.213,1.213H44.772V36.2h3.112A1.214,1.214,0,0,1,49.1,37.408ZM8.863,41.516A2.018,2.018,0,0,1,6.847,39.5V35.316A2.018,2.018,0,0,1,8.863,33.3h5.089v8.216Zm6.847-9.095a1.863,1.863,0,1,1,3.726,0v9.095H15.71V32.421Zm5.484.879h7.472v8.216H21.194Zm9.23-.879a1.863,1.863,0,0,1,3.726,0v9.095H30.425V32.421Zm5.484,9.095V33.3H41a2.018,2.018,0,0,1,2.016,2.016V39.5A2.018,2.018,0,0,1,41,41.516ZM5.7,64.312v1.712a1.231,1.231,0,0,1-1.23,1.229H2.29l1.1-4.171H4.474A1.232,1.232,0,0,1,5.7,64.312Zm10.911,16a6.637,6.637,0,0,1-6.628-6.538s0,0,0,0c0-.022,0-.043,0-.065v-.024a6.629,6.629,0,1,1,13.258.088s0,0,0,0a6.637,6.637,0,0,1-6.628,6.539Zm25,0a6.632,6.632,0,0,1-6.629-6.6v-.025a6.63,6.63,0,0,1,13.26,0s0,0,0,0v.02a6.638,6.638,0,0,1-6.629,6.606ZM56.672,67.253a1.231,1.231,0,0,1-1.23-1.229V64.312a1.232,1.232,0,0,1,1.23-1.23h1.6v4.171Z" transform="translate(-0.001 -28.8)" fill="#009d88"/>
</svg>
