<svg id="_011-camping-tent" data-name="011-camping-tent" xmlns="http://www.w3.org/2000/svg" width="57.928" height="55.201" viewBox="0 0 57.928 55.201">
  <path id="Path_18777" data-name="Path 18777" d="M.336,134.1a.844.844,0,0,0,.814.116l.857,2.122a.849.849,0,0,0,.259,1.657h53.4a.849.849,0,0,0,.259-1.657l.857-2.122a.848.848,0,0,0,.978-1.305l-.3-.391a.849.849,0,0,0-.827-1.09L31.464,98.253a3.005,3.005,0,0,0-1.652-1.55V92.666a.849.849,0,1,0-1.7,0V96.7a3.007,3.007,0,0,0-1.652,1.55L1.3,131.428a.849.849,0,0,0-.827,1.09l-.3.391A.849.849,0,0,0,.336,134.1Zm27.78-18.868H23.164a2.7,2.7,0,0,0-2.7,2.7V136.3H4.776L28.115,98.812C28.115,99.042,28.115,112.746,28.115,115.23Zm-5.953,2.7a1,1,0,0,1,1-1h4.951V136.3H22.162Zm15.3,18.367v-7.135a.849.849,0,0,0-1.7,0V136.3H29.812V116.927h4.951a1,1,0,0,1,1,1V125.2a.849.849,0,1,0,1.7,0v-7.272a2.7,2.7,0,0,0-2.7-2.7H29.812V98.812L53.151,136.3H37.462Zm18.064-3.516-1.009,2.5-13.3-21.359Zm-52.117,2.5L2.4,132.78l14.308-18.861Z" transform="translate(0 -82.792)" fill="#009d88"/>
  <path id="Path_18778" data-name="Path 18778" d="M421.861,57.934a.848.848,0,0,0-.849.849v.166h-.166a.849.849,0,0,0,0,1.7h.166v.166a.849.849,0,1,0,1.7,0v-.166h.166a.849.849,0,1,0,0-1.7h-.166v-.166A.848.848,0,0,0,421.861,57.934Z" transform="translate(-372.478 -52.743)" fill="#009d88"/>
  <path id="Path_18779" data-name="Path 18779" d="M383.279,12.051a.849.849,0,0,0-.849.849v.654h-.654a.849.849,0,0,0,0,1.7h.654v.654a.849.849,0,0,0,1.7,0v-.654h.654a.849.849,0,0,0,0-1.7h-.654V12.9A.849.849,0,0,0,383.279,12.051Z" transform="translate(-337.829 -12.051)" fill="#009d88"/>
  <path id="Path_18780" data-name="Path 18780" d="M323.827,50.095A7.523,7.523,0,1,0,333.4,61.151a1.223,1.223,0,0,0-1.231-1.909,5.694,5.694,0,0,1-3.992-.637.849.849,0,0,0-.843,1.473,7.327,7.327,0,0,0,3.9.975,5.824,5.824,0,1,1-7.619-8.8,7.394,7.394,0,0,0,.663,4.582.849.849,0,0,0,1.521-.753,5.731,5.731,0,0,1-.262-4.487,1.224,1.224,0,0,0-1.715-1.5Z" transform="translate(-283.583 -45.665)" fill="#009d88"/>
</svg>
