<svg id="_013-increase" data-name="013-increase" xmlns="http://www.w3.org/2000/svg" width="58.221" height="35.616" viewBox="0 0 58.221 35.616">
  <g id="Group_7726" data-name="Group 7726" transform="translate(0 0)">
    <path id="Path_18783" data-name="Path 18783" d="M60.535,16.241l-1.16,11.175a1.477,1.477,0,0,1-2.5.891l-2.741-2.741L36.871,42.828a2.959,2.959,0,0,1-4.073,0L23.29,33.321,7.227,49.394A2.877,2.877,0,0,1,3.163,45.32l18.1-18.1a2.947,2.947,0,0,1,4.064,0l9.517,9.508L50.069,21.5l-3.211-3.211a1.47,1.47,0,0,1,.882-2.5l11.175-1.16A1.466,1.466,0,0,1,60.535,16.241Z" transform="translate(-2.322 -14.622)" fill="#009d88"/>
  </g>
</svg>
