<svg xmlns="http://www.w3.org/2000/svg" xmlns:xlink="http://www.w3.org/1999/xlink" width="70.24" height="70.24" viewBox="0 0 70.24 70.24">
  <defs>
    <clipPath id="clip-path">
      <path id="path6747" d="M0-682.665H70.24v70.24H0Z" transform="translate(0 682.665)"/>
    </clipPath>
  </defs>
  <g id="g6741" transform="translate(0 682.665)">
    <g id="g6743" transform="translate(0 -682.665)">
      <g id="g6745" transform="translate(0 0)" clip-path="url(#clip-path)">
        <g id="g6751" transform="translate(61.742 33.756)">
          <path id="path6753" d="M0-196.425H5.312a.848.848,0,0,0,.848-.847v-21.681" transform="translate(0 218.953)" fill="none" stroke="#009d88" stroke-linecap="round" stroke-linejoin="round" stroke-width="2"/>
        </g>
        <g id="g6755" transform="translate(50.132 28.755)">
          <path id="path6757" d="M0-40.011H18.232a.847.847,0,0,0,.847-.847v-2.894a.847.847,0,0,0-.847-.847H0" transform="translate(0 44.6)" fill="none" stroke="#009d88" stroke-linecap="round" stroke-linejoin="round" stroke-width="2"/>
        </g>
        <g id="g6759" transform="translate(3.156 19.574)">
          <path id="path6761" d="M0,0V16.649" fill="none" stroke="#009d88" stroke-linecap="round" stroke-linejoin="round" stroke-width="2"/>
        </g>
        <g id="g6763" transform="translate(49.583 19.574)">
          <path id="path6765" d="M0-218.365V-243.41" transform="translate(0 243.41)" fill="none" stroke="#009d88" stroke-linecap="round" stroke-linejoin="round" stroke-width="2"/>
        </g>
        <g id="g6767" transform="translate(35.97 56.284)">
          <path id="path6769" d="M0,0H13.339" fill="none" stroke="#009d88" stroke-linecap="round" stroke-linejoin="round" stroke-width="2"/>
        </g>
        <g id="g6771" transform="translate(3.156 40.749)">
          <path id="path6773" d="M0,0V14.158a1.376,1.376,0,0,0,1.376,1.376H13.613" fill="none" stroke="#009d88" stroke-linecap="round" stroke-linejoin="round" stroke-width="2"/>
        </g>
        <g id="g6775" transform="translate(1.029 13.956)">
          <path id="path6777" d="M-349.906,0h-38.755a1.376,1.376,0,0,0-1.376,1.376V3.693a1.376,1.376,0,0,0,1.376,1.376h47.928a1.376,1.376,0,0,0,1.376-1.376V1.376A1.376,1.376,0,0,0-340.733,0h-4.648" transform="translate(390.038)" fill="none" stroke="#009d88" stroke-linecap="round" stroke-linejoin="round" stroke-width="2"/>
        </g>
        <g id="g6779" transform="translate(17.044 31.539)">
          <path id="path6781" d="M-37.015-215.754H-41.26v-15.419a9.326,9.326,0,0,1,9.326-9.326,9.326,9.326,0,0,1,9.326,9.326v15.419h-4.245" transform="translate(41.26 240.499)" fill="none" stroke="#009d88" stroke-linecap="round" stroke-linejoin="round" stroke-width="2"/>
        </g>
        <g id="g6783" transform="translate(21.432 36.211)">
          <path id="path6785" d="M-86.1-43.05a4.939,4.939,0,0,0-5.5-4.907,4.885,4.885,0,0,0-4.34,4.3,4.928,4.928,0,0,0,1.1,3.763.127.127,0,0,1-.1.208h0a.91.91,0,0,0-.909.91v10.866h9.612V-38.78a.91.91,0,0,0-.91-.91.127.127,0,0,1-.1-.208A4.915,4.915,0,0,0-86.1-43.05Z" transform="translate(95.973 47.987)" fill="none" stroke="#009d88" stroke-linecap="round" stroke-linejoin="round" stroke-width="2"/>
        </g>
        <g id="g6787" transform="translate(49.583 38.95)">
          <path id="path6789" d="M-103.625-66.97v-1.738a5.942,5.942,0,0,0-5.942-5.943,5.943,5.943,0,0,0-5.943,5.943v11.391h11.885v-5.127" transform="translate(115.51 74.65)" fill="none" stroke="#009d88" stroke-linecap="round" stroke-linejoin="round" stroke-width="2"/>
        </g>
        <g id="g6791" transform="translate(53.408 48.977)">
          <path id="path6793" d="M0-57.789v-6.628" transform="translate(0 64.417)" fill="none" stroke="#009d88" stroke-linecap="round" stroke-linejoin="round" stroke-width="2"/>
        </g>
        <g id="g6795" transform="translate(55.922 43.669)">
          <path id="path6797" d="M0,0V1.812" fill="none" stroke="#009d88" stroke-linecap="round" stroke-linejoin="round" stroke-width="2"/>
        </g>
        <g id="g6799" transform="translate(8.632 22.384)">
          <path id="path6801" d="M0-37.9a5.329,5.329,0,0,1,2.063-4.347A5.327,5.327,0,0,1,4.127-37.9" transform="translate(0 42.252)" fill="none" stroke="#009d88" stroke-linecap="round" stroke-linejoin="round" stroke-width="2"/>
        </g>
        <g id="g6803" transform="translate(19.293 22.384)">
          <path id="path6805" d="M0-37.9a5.33,5.33,0,0,1,2.065-4.347A5.331,5.331,0,0,1,4.128-37.9" transform="translate(0 42.252)" fill="none" stroke="#009d88" stroke-linecap="round" stroke-linejoin="round" stroke-width="2"/>
        </g>
        <g id="g6807" transform="translate(29.955 22.384)">
          <path id="path6809" d="M0-37.9a5.33,5.33,0,0,1,2.063-4.347A5.327,5.327,0,0,1,4.127-37.9" transform="translate(0 42.252)" fill="none" stroke="#009d88" stroke-linecap="round" stroke-linejoin="round" stroke-width="2"/>
        </g>
        <g id="g6811" transform="translate(40.616 22.384)">
          <path id="path6813" d="M0-37.9a5.33,5.33,0,0,1,2.065-4.347A5.332,5.332,0,0,1,4.128-37.9" transform="translate(0 42.252)" fill="none" stroke="#009d88" stroke-linecap="round" stroke-linejoin="round" stroke-width="2"/>
        </g>
        <g id="g6815" transform="translate(3.648 27.005)">
          <path id="path6817" d="M-396.92,0h-45.523" transform="translate(442.443)" fill="none" stroke="#009d88" stroke-linecap="round" stroke-linejoin="round" stroke-width="2"/>
        </g>
        <g id="g6819" transform="translate(7.725 32.65)">
          <path id="path6821" d="M0,0H1.69" fill="none" stroke="#009d88" stroke-linecap="round" stroke-linejoin="round" stroke-width="2"/>
        </g>
        <g id="g6823" transform="translate(10.695 41.038)">
          <path id="path6825" d="M0,0H1.69" fill="none" stroke="#009d88" stroke-linecap="round" stroke-linejoin="round" stroke-width="2"/>
        </g>
        <g id="g6827" transform="translate(40.145 34.078)">
          <path id="path6829" d="M0,0H1.69" fill="none" stroke="#009d88" stroke-linecap="round" stroke-linejoin="round" stroke-width="2"/>
        </g>
        <g id="g6831" transform="translate(41.696 43.127)">
          <path id="path6833" d="M0,0H.014" fill="none" stroke="#009d88" stroke-linecap="round" stroke-linejoin="round" stroke-width="2"/>
        </g>
        <g id="g6835" transform="translate(45.199 41.038)">
          <path id="path6837" d="M0,0H.014" fill="none" stroke="#009d88" stroke-linecap="round" stroke-linejoin="round" stroke-width="2"/>
        </g>
        <g id="g6839" transform="translate(8.678 46.053)">
          <path id="path6841" d="M0,0H.014" fill="none" stroke="#009d88" stroke-linecap="round" stroke-linejoin="round" stroke-width="2"/>
        </g>
        <g id="g6843" transform="translate(62.81 38.95)">
          <path id="path6845" d="M0,0H.014" fill="none" stroke="#009d88" stroke-linecap="round" stroke-linejoin="round" stroke-width="2"/>
        </g>
      </g>
    </g>
  </g>
</svg>
