<svg id="Group_7549" data-name="Group 7549" xmlns="http://www.w3.org/2000/svg" xmlns:xlink="http://www.w3.org/1999/xlink" width="409.883" height="112.663" viewBox="0 0 409.883 112.663">
  <defs>
    <clipPath id="clip-path">
      <rect id="Rectangle_6" data-name="Rectangle 6" width="113.355" height="112.663" transform="translate(0 0)" fill="#5c2705"/>
    </clipPath>
    <clipPath id="clip-path-2">
      <rect id="Rectangle_216" data-name="Rectangle 216" width="265.432" height="64.923" fill="#5c2705"/>
    </clipPath>
  </defs>
  <g id="Group_7536" data-name="Group 7536" clip-path="url(#clip-path)">
    <path id="Path_187" data-name="Path 187" d="M61.142,58.3a4.8,4.8,0,0,0-1.752.58,1.764,1.764,0,0,1,.952-.7,10.8,10.8,0,0,1-3.886-3.5c-.554-.739-.815-1.013-1.377-1.72l.519-.44a1.859,1.859,0,0,0,.739.126,1.527,1.527,0,1,0-.22-3.043,1.707,1.707,0,0,0-.846.307,18.735,18.735,0,0,0-1.536,1.4q-2.309-2.769-4.712-5.185C56.84,39.115,68.06,31.929,81.646,31.467c-13-1.944-24.846,2.495-35.419,12-10.573-9.509-22.42-13.947-35.421-12,13.585.462,24.809,7.648,32.622,14.655q-2.4,2.417-4.71,5.185a19.044,19.044,0,0,0-1.536-1.4,1.7,1.7,0,0,0-.846-.307,1.527,1.527,0,1,0-.22,3.043,1.869,1.869,0,0,0,.739-.126l.517.44c-.562.708-.822.981-1.373,1.72a10.85,10.85,0,0,1-3.888,3.5,1.755,1.755,0,0,1,.95.7,4.8,4.8,0,0,0-1.75-.58c-1.918-.285-4.274.8-3.829,3.382.431,2.476,5,4.405,8.548-.569,1.456-2.042,2.881-4.171,2.881-4.171.447-.588.684-.828,1.3-1.58a16.155,16.155,0,0,0,1.323,1.12,1.678,1.678,0,0,0,.854.279,1.527,1.527,0,1,0,.127-3.047,1.818,1.818,0,0,0-.732.148l-.19-.148c1.3-1.51,2.851-3.206,4.638-4.971,1.789,1.765,3.339,3.461,4.638,4.971l-.187.148a1.881,1.881,0,0,0-.737-.148,1.527,1.527,0,1,0,.128,3.047,1.68,1.68,0,0,0,.856-.279,16.151,16.151,0,0,0,1.323-1.12c.613.752.848.992,1.293,1.58,0,0,1.425,2.129,2.881,4.171,3.552,4.974,8.121,3.045,8.548.569.447-2.581-1.909-3.666-3.827-3.382" transform="translate(10.241 26.587)" fill="#5c2705"/>
    <path id="Path_188" data-name="Path 188" d="M27.638,33.639a16.717,16.717,0,0,1,3.273,1.988c1.789,1.055,3.733-1.563,5.88-2.3-2.389-.253-2.938.719-4.459.771-1.427.05-1.831-.717-4.694-.464" transform="translate(24.513 28.513)" fill="#5c2705"/>
    <path id="Path_189" data-name="Path 189" d="M28.517,48.952c-1.951.177-3.9.49-5.848.669.133,1.207,3.76-.4,5.64,2.415,1.561-.865,6.286-1.565,6.438-.418-1.767-.05-3.413-.131-4.668.6,1.092.011,1.366,1.011,1.857.66,1.257-.9,1.767.264,3.515.34.449,0,.989-.394,1.343-.371.783.048,1.268.552,2.086.163a7.967,7.967,0,0,1,4.88-.388,4.467,4.467,0,0,0-2.254-1.245c.03-.467,1.868-.456,2.914-.12,1.985.416.207-1.179,3.932-1.835-.5-1.541-3.376-.381-4.409-.554-3.358-.564-2.818.856-5.235-.238L37.653,26.311s.194-.976.545.037a14.45,14.45,0,0,0,1.889,3.807c.673.717.735.556.735.556a6.988,6.988,0,0,0,.466-1.382,8.837,8.837,0,0,0,.968,1,4.833,4.833,0,0,0,.231-1.94,8.989,8.989,0,0,0-.3-1.767A5.242,5.242,0,0,1,43.441,28.3a10.973,10.973,0,0,1,.663,1.632,4.519,4.519,0,0,0,.957-4.182c-.551-2.8-2.321-3.465-2.321-3.465s1.31-.342,2.517,1.613,1.682,2.554,1.682,2.554a4.233,4.233,0,0,0,.325-3.5,5.457,5.457,0,0,0-2.386-2.3s.815-.353,2.489.748a7.324,7.324,0,0,1,1.827,1.393s.553-2.9-.649-3.91S44.2,17.75,43.681,16.811c0,0,4.217.39,5.174,1.3a6.565,6.565,0,0,0-3.679-3.4,8.275,8.275,0,0,0-4.086-.606c.028-.039.477-.745,2.909-.179a17.7,17.7,0,0,0,4.378.469s-3.014-2.554-6.227-2.347-4.424,1.779-4.424,1.779a.765.765,0,0,1-.379-1.2A2.454,2.454,0,0,0,37.1,9.719a6.589,6.589,0,0,0-2.487,2.548c-.48,1.358.78,1.959-.2,3.2a4.733,4.733,0,0,1-.808-1.606c-.4-1.166-2.369-2.637-7.561-.867a3.682,3.682,0,0,1,2.561.935c1.079,1.035.974,1.406.974,1.406a3.749,3.749,0,0,0-2.831-.257c-1.425.525-1.672,1.221-1.672,1.221a6.793,6.793,0,0,1,2.5.118c.806.329.8.8.8.8a3.932,3.932,0,0,0-3.59.458,3.656,3.656,0,0,0-1.7,3.014,4.766,4.766,0,0,0,2.238-.366c1.186-.5,1.682-.909,2.467-.634a6.1,6.1,0,0,0-2.066,1.059,2.342,2.342,0,0,0-.822,1.508,6.133,6.133,0,0,0,1.759-.745c.935-.577,1.77-1.07,2.572-.536A5.081,5.081,0,0,0,26.6,22.852a5.641,5.641,0,0,0-.6,6.39,15,15,0,0,0,2.206-2.731,16.143,16.143,0,0,1,1.013-1.7,6.753,6.753,0,0,0,.205,2.18,7.5,7.5,0,0,0,.807-1.133,2.709,2.709,0,0,1,1.088-1.09,7.455,7.455,0,0,0-.652,3.588c-.052,2.666.582,3.108.582,3.108a19.26,19.26,0,0,0,2.286-3.352c.756-1.436,1.271-2.733,1.271-2.733l-.743,23.556c-1.517.807-4.034-.126-5.547.013" transform="translate(20.3 8.529)" fill="#5c2705"/>
    <path id="Path_190" data-name="Path 190" d="M55.757,109.743a53.986,53.986,0,1,1,53.986-53.986,54.092,54.092,0,0,1-53.986,53.986M55.757,0a55.756,55.756,0,1,0,55.757,55.757A55.865,55.865,0,0,0,55.757,0" transform="translate(1.08 0.288)" fill="#5c2705"/>
    <path id="Path_191" data-name="Path 191" d="M9.638,49.257A39.446,39.446,0,1,1,49.084,88.7,39.523,39.523,0,0,1,9.638,49.257m80.66,0A41.214,41.214,0,1,0,49.084,90.471,41.294,41.294,0,0,0,90.3,49.257" transform="translate(7.753 7.108)" fill="#5c2705"/>
    <path id="Path_192" data-name="Path 192" d="M22.02,11.007a2.951,2.951,0,0,0,.065-.931,4.5,4.5,0,0,0-.4-1.463c-.346-.767-.841-1.715-1.493-2.842l-.416-.682-.244-.4-.148,1.035a3.284,3.284,0,0,0-.037.782Z" transform="translate(17.47 4.26)" fill="#5c2705"/>
    <path id="Path_193" data-name="Path 193" d="M20.7,11.456c.041.126.5.211,1.358.259a5.878,5.878,0,0,0,1.706-.057c.53-.172.9-.691,1.107-1.565A5.38,5.38,0,0,0,25,8.306a4.024,4.024,0,0,0-.153-.789,2.97,2.97,0,0,0-1.094-1.493,2.645,2.645,0,0,0-1.085-.5l-.024,1.423a6.794,6.794,0,0,1,.911.381q.7.369.772.586c.126.39-.067,1-.584,1.835a5.7,5.7,0,0,1-.717,1.009,1.62,1.62,0,0,1-.65.462,3.214,3.214,0,0,1-.717.092l-.2-.011-.24.015-.451.015c-.068.024-.1.067-.076.128" transform="translate(18.623 4.971)" fill="#5c2705"/>
    <path id="Path_194" data-name="Path 194" d="M10.023,13.882l0-.018L10,13.8Z" transform="translate(9.56 11.989)" fill="#5c2705"/>
    <path id="Path_195" data-name="Path 195" d="M17.116,7.9a.775.775,0,0,1,.091-.334l.1-.323.549,0a3.06,3.06,0,0,0,.554-.03l.122-.392.079-.346.05-.259-1.116.017a1.082,1.082,0,0,0-.055.133c-.022.057-.044.142-.079.253a.884.884,0,0,1-.135.323,1.653,1.653,0,0,1-.48.048,2.048,2.048,0,0,1-.525-.055l-.1.314a2.013,2.013,0,0,0-.094.336L16,7.925a1.9,1.9,0,0,0,.521.028,1.96,1.96,0,0,0,.6-.05" transform="translate(14.646 5.565)" fill="#5c2705"/>
    <path id="Path_196" data-name="Path 196" d="M13.031,10.578l3.827,3.6a2.949,2.949,0,0,0-.2-.913,4.472,4.472,0,0,0-.8-1.3c-.545-.643-1.284-1.417-2.227-2.325L13.053,9.1,12.7,8.78l.148,1.037a3.484,3.484,0,0,0,.181.761" transform="translate(11.85 7.732)" fill="#5c2705"/>
    <path id="Path_197" data-name="Path 197" d="M16.322,12.028a1.2,1.2,0,0,0,.893.6,1.913,1.913,0,0,0,.6.007l.15-.031a.371.371,0,0,0,.128-.039l.275-.128,4.331-2.38a3.261,3.261,0,0,0-.1-.961l-.057-.469a.464.464,0,0,0-.022-.152l-.061-.1-.055-.2a1.122,1.122,0,0,0-.1-.248l-.044-.105L22.2,7.725l-.076-.139a1.375,1.375,0,0,0-.248-.314,2.836,2.836,0,0,0-.408-.323L21.1,6.743l-.3-.153-.022,1.378.3.144a.884.884,0,0,1,.373.22.813.813,0,0,1,.231.209l.1.1c0,.007.024.041.055.1a.258.258,0,0,1,.033.229l-3.733,2.051a1.542,1.542,0,0,1-1.367.126l-.152-.067-.087-.078-.1-.129-.092-.164a5.805,5.805,0,0,1-.327-.789l-.052-.172L15.9,9.6,15.784,9.5c-.135.076-.128.425.018,1.05a5.791,5.791,0,0,0,.519,1.475" transform="translate(14.381 5.876)" fill="#5c2705"/>
    <path id="Path_198" data-name="Path 198" d="M29.063,6.825a.922.922,0,0,1,.375-.262.834.834,0,0,1,.231-.089l.3-.057c.237-.043.436.078.606.357a.97.97,0,0,1,.15.285l.068.188.044.231-.116.041-.115.013-.15-.007L30.307,7.5l-.14-.033-.516-.185-.2-.061-.264-.1L28.919,7ZM26.489,9.4v0l.983-.172a.638.638,0,0,0,.565-.51A.835.835,0,0,1,28.23,8.3l1.949.671c.318.12.567.2.747.255a1.089,1.089,0,0,0,.355.065c.083-.015.133-.146.155-.392.046-.246.113-.375.2-.392l.8-.14v0l2.373-.043a1.848,1.848,0,0,0,.253-.423l.1-.19.122-.237a1.857,1.857,0,0,0,.353.639.984.984,0,0,0,.586.187l.865-.015,0-.052,2.186.037.512-.878a1.378,1.378,0,0,0,.375.671.91.91,0,0,0,.608.233l.545.009-.007.052,1.484.259.161-.013.15-.046a1.3,1.3,0,0,0,.34-.218l.081-.072.018.081.092.3a.606.606,0,0,0,.3.183,5.006,5.006,0,0,0,.726.168l.161.028.312.054.336.031.53.02.2-.174.078-.054.037-.015a.374.374,0,0,1,.094.168l.026.126.039.078,1.779.312.118-.214.181-.251.209-.286.1-.177a3.626,3.626,0,0,0,.2-.73l.275-1.545-.32.229c-.12.091-.249.194-.384.318a2.638,2.638,0,0,0-.425.419l0,.213.006.3,0,.15.022.211-1.136-.231a.408.408,0,0,1,0-.144,2.5,2.5,0,0,1,.137-.421l.152-.351.358-.759-.638.429a4.667,4.667,0,0,0-.473.384.892.892,0,0,0-.129.177,1.289,1.289,0,0,0-.1.355l-.037.2-.377.018-.419-.054-.168-.03-.41-.091-.327-.111c-.2-.105-.3-.185-.286-.235l.129-.249a.93.93,0,0,0,.142-.2l.128-.235a3.984,3.984,0,0,0,.351-.867c-.285.2-.528.379-.732.541a1.856,1.856,0,0,0-.458.384,1.8,1.8,0,0,1-.1.4q-.191.288-.4.249l-1.887-.329-.12.673.013-.741-.176,0a.847.847,0,0,1-.564-.225.644.644,0,0,1-.2-.473V6.187l.055-.261.031-.1V5.724l.03-.351.024-.48,0-.172-.824.939-.046.724,0,.183-.037.161-.063.163-.02.046-2.742-.048,0,.059-.279,0a.715.715,0,0,1-.471-.166A.588.588,0,0,1,36,6.441l0-.091.055-.342.017-.275.02-.122,0-.163,0-.216-.017-.253-.013-.139-.833,1.051-.022.634-.022.275-.046.177-2.72.046.006.312-.055-.32-.351.059c-.152.028-.37-.12-.645-.442a4.507,4.507,0,0,1-.577-.743l-.07-.14-.033-.146-.046-.257a.308.308,0,0,0-.1-.207.658.658,0,0,0-.318-.011,2.463,2.463,0,0,0-.97.582,3.343,3.343,0,0,0-.846.961,5.747,5.747,0,0,0-.27.817.424.424,0,0,1-.333.322L26.05,8.12l0,.015-.37.1-.222.039c-.091,0-.148-.013-.164-.037l-.1-.107a.159.159,0,0,1-.033-.076,3.822,3.822,0,0,1-.257-.589l-.628-1.591a28.463,28.463,0,0,1-.968-2.69l-.565,1.207L24.76,9.863Z" transform="translate(20.362 2.985)" fill="#5c2705"/>
    <path id="Path_199" data-name="Path 199" d="M58.012,25.652l.979.65a1.7,1.7,0,0,1,.536.658l.031.115.026.087.022.166a2.153,2.153,0,0,1-.041.516c-.078.394-.181.623-.31.684a.489.489,0,0,1-.19-.013.838.838,0,0,1-.384-.434l-1.375-2.923ZM48.324,13.988a.5.5,0,0,0-.109.2.328.328,0,0,0,.07.2L50.2,16.56c.055.085.224.076.5-.024a1.338,1.338,0,0,1,.61-.078l.068.026-.028.067-.061.131a.275.275,0,0,1-.057.111l-.044.072-.068.109-.1.157c-.087.166-.107.264-.063.3l.492.56L51.432,18l1.221,1.866.972-.065-.2.237-.1.19a.907.907,0,0,0,.089.8l.41.623.262-.168.556,1.181.911.1-.492.371c-.083.111-.113.183-.094.224l2.731,5.8a.591.591,0,0,0,.427.229,5.078,5.078,0,0,0,.854.052l.724-.018.6-.028c.279-.129.5-.493.665-1.094a2.01,2.01,0,0,0,.044-1.334,3.47,3.47,0,0,0-1.216-1l-1.7-.979-.765-.48a1.957,1.957,0,0,1-.436-.355,1.1,1.1,0,0,1-.142-.15l-.081-.172-.089-.188a.432.432,0,0,1-.022-.312.541.541,0,0,1,.261-.249l1.484-.8-.811-.194a2.8,2.8,0,0,0-.65-.122l-.785.556-.839-1.779-.3.139-.148-.227a.69.69,0,0,1-.1-.48.515.515,0,0,1,.214-.333l.068-.037.323-.135.24-.135.118-.043.137-.089.188-.113.207-.148.111-.087c-.059-.015-.29-.042-.7-.081l-.484-.046-.159-.015-.552.32-.246.126-.179.054-1.4-2.14-.041.024.059-.05-.181-.207c-.087-.1-.026-.3.181-.589l.488-.684.978-1.4.355-.512-1.421.381L52.219,15.4a2.582,2.582,0,0,1-.5.6l-.078.059-.068.042-1.85-2.11a.316.316,0,0,1-.087-.314,1,1,0,0,1,.262-.32c.013,0,.041-.017.083-.054l.091-.078.072-.046.061-.052.122-.1.052-.063.022-.054c-.033-.039-.148-.02-.34.059l-.153.055-.137.074a6.274,6.274,0,0,0-.868.488Z" transform="translate(41.959 11.218)" fill="#5c2705"/>
    <path id="Path_200" data-name="Path 200" d="M42.146,10.894a4.509,4.509,0,0,0,.891-1.234q.577-1.123,1.29-2.938l.272-.748.163-.445-.9.54a3.68,3.68,0,0,0-.639.462l-1.846,4.9a3.1,3.1,0,0,0,.772-.536" transform="translate(36.159 4.975)" fill="#5c2705"/>
    <path id="Path_201" data-name="Path 201" d="M53.324,16.2c.346.124.547.168.6.133.017-.057.033-.135.052-.233s.044-.24.07-.419l.085-.615a1.722,1.722,0,0,0-.636-.214,2.042,2.042,0,0,0-.626-.1,1.743,1.743,0,0,0-.109.582,2.712,2.712,0,0,0,0,.617,1.965,1.965,0,0,0,.564.253" transform="translate(45.801 12.783)" fill="#5c2705"/>
    <path id="Path_202" data-name="Path 202" d="M48.732,11.313l-.133-.094-.144-.1-.139-.137-.083-.137-.052-.133-.052-.205a.48.48,0,0,1-.026-.161,2.383,2.383,0,0,1,.431-.185.519.519,0,0,1,.39.039c.061.043.105.2.14.46a1.476,1.476,0,0,1,.017.4,1.282,1.282,0,0,1-.05.358l-.105-.009-.076-.02Zm-5.773.732A2.424,2.424,0,0,0,44.017,13.4c.039.026.085.059.148.1s.157.092.285.159l.29.146.327.14a8.918,8.918,0,0,0,1.3.351,4.786,4.786,0,0,0,1.48.124A3.033,3.033,0,0,0,48.468,14l.322-.255.408-.336.05-.048.1-.144.275-.493.163-.355L49.932,12a4.87,4.87,0,0,0,.336-1.718,1.262,1.262,0,0,0-.109-.514.715.715,0,0,0-.248-.309q-.513-.355-1.609.174a3.662,3.662,0,0,0-1.323.953.785.785,0,0,0-.061.761,1.384,1.384,0,0,0,.519.695,1.527,1.527,0,0,0,.989.312,1.008,1.008,0,0,0,.371-.1.423.423,0,0,1-.017.148l-.026.139a.67.67,0,0,1-.089.3l-.078.209-.067.107-.176.364a3.477,3.477,0,0,1-1.565-.216,6.725,6.725,0,0,1-1.754-.868,2.289,2.289,0,0,1-.759-.878,1.267,1.267,0,0,1,.128-1.343,2,2,0,0,1,.3-.322l.5-.375.462-.336a.845.845,0,0,0,.2-.17c.026-.061.024-.1-.007-.126q-.188-.13-1.135.5a5.217,5.217,0,0,0-.844.634,4.627,4.627,0,0,0-.582.66,1.64,1.64,0,0,0-.327,1.358" transform="translate(37.47 7.805)" fill="#5c2705"/>
    <path id="Path_203" data-name="Path 203" d="M40.4,9.377l.322-.126.46-.233.031.207.033.257.017.266,0,.179a3.214,3.214,0,0,1-.482-.139L40.7,9.758l-.416-.179-.166-.115Zm1,2.01.231-.449a3.528,3.528,0,0,0,.273-.58c.006-.017.024-.065.054-.142l.087-.273.026-.231,0-.3-.044-.687A1.03,1.03,0,0,0,42.36,8.5l.471-.442a2.017,2.017,0,0,0,.386-.469.769.769,0,0,0,.142-.2l.079-.133.079-.135.079-.209.105.126a.151.151,0,0,0,.07.074l.163.07,1.112-.809c.007-.055-.094-.214-.3-.477l-.32-.4a.994.994,0,0,1-.231-.468,1.071,1.071,0,0,1,.094-.436l-.721.508-.552.412-.185.148.109.375a1.379,1.379,0,0,1-.105.541l-.059.159-.109.231-.152.264-.148.231A4.713,4.713,0,0,1,41.915,8l-.249-1.011L41.406,6.2a5.818,5.818,0,0,0-.261-.608l-.222-.427-.139-.262a4.694,4.694,0,0,0-.268-.46,2.049,2.049,0,0,0-.8-.857l-.275.272-.248.275a2.567,2.567,0,0,0-.418.621,1.309,1.309,0,0,0-.1.5.61.61,0,0,0,.235.429,5.123,5.123,0,0,1,.645.774l.109.139.177.286c.057.02.129-.022.211-.131s.137-.159.157-.15a1.01,1.01,0,0,1,.248.333l.157.283a1.218,1.218,0,0,1,.094.231l.164.4.109.336.092.314.006.052a1.764,1.764,0,0,1-.392.179l-.279.1-.242.061-.554.139a.821.821,0,0,1-.471,0,.505.505,0,0,1-.371-.407l-.048-.227L38.7,8.318c-.054.009-.129.1-.224.264a1.584,1.584,0,0,0-.161.29l-.148.368c-.037.1-.074.207-.1.32A2.641,2.641,0,0,0,38,9.85q.042.258.15.3Z" transform="translate(33.297 3.331)" fill="#5c2705"/>
    <path id="Path_204" data-name="Path 204" d="M46.374,8.461l.081.2.087.139a.677.677,0,0,0,.177.213L46.777,9l.3-.037.285-.043.092-.015.152.318a6.644,6.644,0,0,0,.381.7,1.756,1.756,0,0,0,.419-.061,6.232,6.232,0,0,0,.671-.161l-.541-1.07-.307.035-.275.048a.3.3,0,0,1-.176.011l-.072-.018a1.451,1.451,0,0,1-.249-.432c-.128-.318-.2-.5-.2-.532l-.336.061-.737.172.065.205Z" transform="translate(40.235 6.86)" fill="#5c2705"/>
    <path id="Path_205" data-name="Path 205" d="M49.787,11.979a.6.6,0,0,1,.462-.107.758.758,0,0,1,.3.048A1.641,1.641,0,0,1,50.7,12a.752.752,0,0,1,.085.068.652.652,0,0,1,.194.486.74.74,0,0,1-.211.547l-.046.05-.331-.126-.1-.033-.05-.046-.089-.083-.183-.205-.161-.264c-.061-.22-.07-.355-.02-.41m-.924.323a1.579,1.579,0,0,0-.188.316.82.82,0,0,0,.259.909,1.269,1.269,0,0,0,.929.41l.129-.013.12-.033.168-.059.259-.107.3-.157a.848.848,0,0,1-.116.224l-.083.172L50.609,14l-.035.039-.05.052a2.378,2.378,0,0,1-1.73.5,7.191,7.191,0,0,1-1.136-.074,5.316,5.316,0,0,1-1.083-.273l-.146-.046-.124-.079a.973.973,0,0,1-.253-.188l-.211-.231-.177-.237-.3-.438-.128-.172q-.169-.078-.227-.017c-.048.111.122.482.514,1.109.037.072.067.12.078.146s.046.072.092.135l.14.214a.554.554,0,0,0,.059.1.507.507,0,0,0,.055.072l.131.176a3.456,3.456,0,0,0,.49.551,2.323,2.323,0,0,0,2.471.187,5.9,5.9,0,0,0,2.336-1.506,3.251,3.251,0,0,0,.8-1.515c.142-.591.122-.974-.061-1.142-.268-.248-.772-.277-1.517-.091a2.824,2.824,0,0,0-1.354.6Z" transform="translate(39.234 9.741)" fill="#5c2705"/>
    <path id="Path_206" data-name="Path 206" d="M29.2,4.3l.174-.205.163-.172.22-.2A2.266,2.266,0,0,1,30.308,4l.484.286.139-.15.211-.261.262-.351L30.493,3l-.233.231c-.213.218-.349.327-.4.329a2.39,2.39,0,0,1-.445-.2l-.253-.152-.225-.144-.1.092-.1.111-.14.166-.279.344a3.39,3.39,0,0,0,.381.266,2.927,2.927,0,0,0,.5.253" transform="translate(25.088 2.829)" fill="#5c2705"/>
    <path id="Path_207" data-name="Path 207" d="M30.1,2.961l-.719-.6L28.706,3l.747.569Z" transform="translate(25.418 2.289)" fill="#5c2705"/>
    <path id="Path_208" data-name="Path 208" d="M31.756,3.932l.161-.174.4-.351.547.331a4.093,4.093,0,0,0,.516.249l.1-.083.237-.218c.257-.27.414-.438.462-.508L33.1,2.58a2.141,2.141,0,0,0-.36.3c-.163.153-.262.227-.3.227l-.19-.074-.281-.144a5.11,5.11,0,0,1-.48-.334l-.248.229L31.009,3l-.323.344a1.49,1.49,0,0,0,.462.325,2.475,2.475,0,0,0,.608.266" transform="translate(27.097 2.45)" fill="#5c2705"/>
    <path id="Path_209" data-name="Path 209" d="M12.7,21.962l1.053-1.436-.072-.052,1.772-2.168L15.32,17.9l-.155-.37-.054-.109.127.017.233.028.224.055.353.057.8-.983,1.761-1.63.087-.107.092-.122c.052-.1.061-.153.035-.164-.039-.089-.068-.15-.087-.183l-.139-.207-.229-.368a3.82,3.82,0,0,0-.392-.558c-.009-.013-.041-.044-.087-.1l-.754-.606-.209-.157-.155-.126-.22-.2-.29-.275-.024-.024-.152-1.556-.272.083-.4.091-.944.168a1.281,1.281,0,0,1-.344-.076l-.076-.028a.219.219,0,0,1-.074-.059l-.148-.146.05.347.115.516.224.8.591-.055.841.606.754.523a7.858,7.858,0,0,1,1.009.833c.115.124.168.216.164.27l-1.569,1.447-.022-.018-.569.7-.061-.083-.1-.188-.111-.333a1.583,1.583,0,0,0-.131-.32.638.638,0,0,0-.135-.161,1.186,1.186,0,0,0-.843-.15,1.719,1.719,0,0,0-1.2.641,2.6,2.6,0,0,0-.445.909l-.07.229-.033.144.022.057.246.632.262.589a.427.427,0,0,1,.091-.153l.137-.168a1.288,1.288,0,0,1,.676-.432,1.436,1.436,0,0,1,.588-.043l.124.033-1.92,2.349.074.061-.211.288-.15.168c-.072.055-.122.081-.153.076l-.144-.024c-.011,0-.037-.009-.07-.035a3.551,3.551,0,0,1-.578-.3l-1.495-.844A28.084,28.084,0,0,1,7.33,17.675l.323,1.292Z" transform="translate(7.295 8.947)" fill="#5c2705"/>
    <path id="Path_210" data-name="Path 210" d="M7.6,23.475l.235.039a.55.55,0,0,1,.176.041l.233.059.157.063.15.059-.076.183-.124.307-.179.331a.669.669,0,0,0-.139.205l-.126.2-.155.207-.142.176-.061-.758a1.246,1.246,0,0,0-.153-.562l-.261-.286a.8.8,0,0,1-.177-.36,2.356,2.356,0,0,1,.643.1M10.17,19.1l-.013-.153-.011-.355a.8.8,0,0,1,.02-.248l.041-.148.087-.161c.128-.152.358-.19.689-.118a4.673,4.673,0,0,1,.471.137ZM5.763,22.93l.279.394.214.022a.7.7,0,0,1,.237.024l.214,1.284a3.476,3.476,0,0,0,.172.75,2.477,2.477,0,0,0,.708.839,3.85,3.85,0,0,0,.8.6l.063-.152.126-.2.412-.6a9.291,9.291,0,0,0,.553-.815c.059-.144-.035-.353-.279-.623a1.365,1.365,0,0,1-.388-.573l.011-.081.063.013a4.847,4.847,0,0,1,.68.15q.768.1.928-.294l.31-.761-.033-.015.763-1.423a.4.4,0,0,0-.092-.442c-.3-.458-.427-.732-.39-.822l1.9-1.7a3.206,3.206,0,0,0-.366-.695,3.193,3.193,0,0,0-.427-.623,2.561,2.561,0,0,0-.357-.153l-.294-.078-.2-.048-1.029-.164-.5-.1a.226.226,0,0,0-.264.133,1.245,1.245,0,0,0-.124.442l-.067.636a2.976,2.976,0,0,0,.29,1.43l.327.475.53.747.033.033L9.54,22.444l.046.026-.115.279-.05.12a.347.347,0,0,1-.152.2l-.2.042a6.567,6.567,0,0,1-.939-.187L6.415,22.5l-.6-.126-.606-.115.3.349Z" transform="translate(5.499 14.389)" fill="#5c2705"/>
    <path id="Path_211" data-name="Path 211" d="M4.4,22.673a1.262,1.262,0,0,0,.229-.142l.2-.153.262-.22a1.366,1.366,0,0,0,.177-.211.786.786,0,0,1-.142-.309l-.057-.157L5,21.315a3.707,3.707,0,0,0,.46-.36,4.483,4.483,0,0,0,.34-.314l.05-.05a1.769,1.769,0,0,0-.148-.37l-.139-.286-.144-.275-.887.713.2.519a.375.375,0,0,1,.048.231,1.267,1.267,0,0,1-.344.318c-.237.163-.392.264-.462.3l.124.273Z" transform="translate(4.452 16.956)" fill="#5c2705"/>
    <path id="Path_212" data-name="Path 212" d="M58.576,32.077a5.33,5.33,0,0,1,.331-.586.864.864,0,0,1,.442.22c.192.161.288.288.288.379-.054.244-.264.425-.638.545a.725.725,0,0,1-.286.091c-.017,0-.113.013-.29.041l-.015-.076a4.554,4.554,0,0,1,.168-.613M53.3,34.267a2.054,2.054,0,0,0,.758.288,4.2,4.2,0,0,0,.9.183l.089-.009.159-.144.235-.157c.033-.02.076-.05.133-.083a1.362,1.362,0,0,1,.2-.1,4.08,4.08,0,0,1,1.118-.371,7.025,7.025,0,0,1,1.286-.115,4.976,4.976,0,0,0,2.254-.407c.519-.268.776-.584.776-.942s-.371-.8-1.112-1.282A3.751,3.751,0,0,0,58.14,30.4l-.353.024a1.008,1.008,0,0,0-.5.384,1.848,1.848,0,0,0-.447,1.026,2.553,2.553,0,0,0-.057.652l-.05.349-.018.115c-.466.076-.88.157-1.236.248l-.523.161-.477.174c-.754.323-1.144.569-1.177.735" transform="translate(46.274 26.062)" fill="#5c2705"/>
    <path id="Path_213" data-name="Path 213" d="M60.526,27.561a4.031,4.031,0,0,0-.787-.577l-.4-.207-.37.214-.726.44c-.194.1-.456.212-.791.349L56.38,28.2a8.767,8.767,0,0,1-1.9.421q-1.114.13-1.114.351c0,.146.105.242.314.281a7.186,7.186,0,0,0,1.155.061H55.9l.4-.039.462-.059.516-.129.451-.129.089.3a2.685,2.685,0,0,0,.575.789l-.083.146-.068.148-.105.288a1.563,1.563,0,0,0-.129.6.842.842,0,0,0,.046.279c.081.281.366.517.863.715a3.409,3.409,0,0,0,1.245.264l.2-.017.128-.044a.181.181,0,0,0,.063-.176.475.475,0,0,0-.229-.22l-.449-.213a.476.476,0,0,1-.164-.331.856.856,0,0,1,.161-.5.763.763,0,0,1,.272-.251l.188-.011h.185c.2,0,.294-.074.294-.213l-.782-.554a2.459,2.459,0,0,1-.66-.684.408.408,0,0,1-.052-.205c0-.242.211-.567.63-.97Z" transform="translate(46.323 22.992)" fill="#5c2705"/>
    <path id="Path_214" data-name="Path 214" d="M55.749,25.93c-.447.085-1.031.185-1.748.29-.379.091-.569.185-.569.279,0,.142.15.237.447.281a5.289,5.289,0,0,0,1.136.085l.486-.007h.266a9.793,9.793,0,0,0,1.438-.122,11.552,11.552,0,0,0,1.452-.32,7.124,7.124,0,0,0,1.733-.82c.408-.286.6-.466.569-.538-.013-.055-.261-.172-.748-.347l-.288-.105c-.079-.028-.183-.057-.3-.094l-.229-.059-.176-.007-.917.538c-.192.107-.429.222-.706.351s-.588.248-.931.37a5.559,5.559,0,0,1-.915.227" transform="translate(46.382 21.013)" fill="#5c2705"/>
    <path id="Path_215" data-name="Path 215" d="M59.924,34.258c-.083-.026-.183-.057-.3-.092l-.227-.059-.179-.009-.915.54c-.19.105-.427.222-.708.349s-.586.248-.931.37a5.474,5.474,0,0,1-.913.227c-.449.087-1.029.185-1.746.29-.381.091-.571.185-.571.279,0,.144.15.237.449.281a5.18,5.18,0,0,0,1.136.085l.484-.007h.266a9.566,9.566,0,0,0,1.438-.122,11.17,11.17,0,0,0,1.452-.32,7.089,7.089,0,0,0,1.733-.82c.412-.286.6-.466.573-.538a2.18,2.18,0,0,0-.754-.346l-.285-.107" transform="translate(46.381 29.197)" fill="#5c2705"/>
    <path id="Path_216" data-name="Path 216" d="M9.033,27.957,9.216,26.9l.006-.028-.75-1.55-.018-.041-1.168-.2.634,1.38L3.3,25.675,3.22,25.66,3,26.931l5.946,1.011Z" transform="translate(3.624 21.551)" fill="#5c2705"/>
    <path id="Path_217" data-name="Path 217" d="M6.134,29.022a1.113,1.113,0,0,1,.726-.235l.091,0a.994.994,0,0,1,1.035,1.077,1.029,1.029,0,0,1-.347.752,1.193,1.193,0,0,1-.783.251c-.033,0-.068,0-.1,0a.99.99,0,0,1-.719-.334,1.078,1.078,0,0,1-.24-.78.991.991,0,0,1,.34-.732M5.7,32.159,6,32.176c.105.007.207.009.307.009,1.646,0,2.593-.793,2.672-2.253a2.073,2.073,0,0,0-1.994-2.408c-.046,0-.091,0-.135,0a1.947,1.947,0,0,0-1.994,1.948,1.739,1.739,0,0,0,.479,1.393c-1.1-.133-1.639-.575-1.6-1.316a.829.829,0,0,1,.748-.9l.068-.013.067-1.208-.1.009A1.944,1.944,0,0,0,2.71,29.5c-.089,1.578,1,2.544,2.986,2.655" transform="translate(3.374 23.544)" fill="#5c2705"/>
    <path id="Path_218" data-name="Path 218" d="M8.81,34.918l.237-.015-.275-4.326L7.7,30.645l.174,2.724L2.836,31.817,2.71,31.78l.081,1.264,0,.061,6,1.809Z" transform="translate(3.378 26.213)" fill="#5c2705"/>
    <path id="Path_219" data-name="Path 219" d="M9.148,34.879l0-.028L7.92,33.641l-.033-.031-1.168.2L7.779,34.9l-4.7.822L3.3,37,9.333,35.94Z" transform="translate(3.693 28.784)" fill="#5c2705"/>
    <path id="Path_220" data-name="Path 220" d="M10.331,40.719l.327.734c.309.691.216,1.2-.464,1.508l-.035.017A1.012,1.012,0,0,1,8.7,42.33l-.333-.735Zm.46,3.651.035-.015c1.353-.606,1.646-1.8.952-3.358l-.99-2.212-6.4,2.86.645,1.441,2.328-1.04.364.815c.652,1.46,1.717,2.112,3.069,1.508" transform="translate(4.798 33.173)" fill="#5c2705"/>
    <path id="Path_221" data-name="Path 221" d="M11.813,45.008,9.246,46.586a1.019,1.019,0,0,1-1.519-.32c-.32-.517-.185-.935.41-1.3l2.646-1.63-.739-1.2L7.23,43.866a1.676,1.676,0,0,0-.73,2.5,1.693,1.693,0,0,0,1.63.907l-.686.423.741,1.2,4.365-2.689Z" transform="translate(6.336 36.012)" fill="#5c2705"/>
    <path id="Path_222" data-name="Path 222" d="M12.333,50.155l-.061.05c-.774.632-1.458.632-1.953.024s-.412-1.3.386-1.946l.061-.05c.8-.65,1.523-.584,1.994-.006.453.554.379,1.271-.427,1.927m.918,1.112c1.316-1.072,1.419-2.419.625-3.393a1.9,1.9,0,0,0-1.746-.687l2.423-1.975-.9-1.1L7.876,48.817l.9,1.1.63-.514a1.762,1.762,0,0,0,.32,1.852c.806.989,2.151,1.133,3.465.061Z" transform="translate(7.758 37.686)" fill="#5c2705"/>
    <rect id="Rectangle_3" data-name="Rectangle 3" width="7.454" height="1.412" transform="translate(20.084 91.677) rotate(-44.829)" fill="#5c2705"/>
    <path id="Path_223" data-name="Path 223" d="M13.916,48.045A.81.81,0,1,0,15.032,48a.778.778,0,0,0-1.116.044" transform="translate(12.713 40.803)" fill="#5c2705"/>
    <rect id="Rectangle_4" data-name="Rectangle 4" width="5.132" height="1.412" transform="translate(22.32 93.853) rotate(-48.327)" fill="#5c2705"/>
    <path id="Path_224" data-name="Path 224" d="M17.493,50.5a2.549,2.549,0,0,0-3.714.582l-.044.063a2.462,2.462,0,0,0,.58,3.664,2.2,2.2,0,0,0,3.195-.207l-1.035-.761A1.041,1.041,0,0,1,15,53.993c-.639-.471-.7-1.17-.089-2l.048-.063c.58-.791,1.3-.942,1.892-.508a.946.946,0,0,1,.323,1.319l1.081.8a2.141,2.141,0,0,0-.765-3.034" transform="translate(12.239 42.638)" fill="#5c2705"/>
    <rect id="Rectangle_5" data-name="Rectangle 5" width="7.013" height="1.599" transform="translate(32.133 100.887) rotate(-62.098)" fill="#5c2705"/>
    <path id="Path_225" data-name="Path 225" d="M23.357,53.822a1.768,1.768,0,0,0-1.894.235l.309-.754-1.318-.536-1.935,4.747,1.316.538,1.116-2.742a1.016,1.016,0,0,1,1.417-.641c.578.237.71.649.445,1.293l-1.155,2.833,1.318.538,1.234-3.025a1.687,1.687,0,0,0-.854-2.485" transform="translate(16.782 45.026)" fill="#5c2705"/>
    <path id="Path_226" data-name="Path 226" d="M26.127,54.9,24,58.124l-.225-3.862-1.469-.4.469,5.442,1.543.418,3.138-4.466Z" transform="translate(19.989 45.957)" fill="#5c2705"/>
    <path id="Path_227" data-name="Path 227" d="M26.555,56.737a1.177,1.177,0,0,1,1.332-.965,1.048,1.048,0,0,1,.939,1.3ZM28.03,54.8a2.548,2.548,0,0,0-3,2.254l-.011.078a2.49,2.49,0,0,0,2.269,2.971c1.388.2,2.35-.279,2.678-1.351l-1.33-.2c-.15.414-.512.649-1.16.553A1.227,1.227,0,0,1,26.409,57.6l3.659.538.057-.388a2.368,2.368,0,0,0-2.1-2.945" transform="translate(22.262 46.724)" fill="#5c2705"/>
    <path id="Path_228" data-name="Path 228" d="M30.694,57.1c-.743-.129-.985-.264-.976-.586s.281-.523.741-.51c.492.013.721.216.787.639l1.3.037c-.094-1.179-.937-1.615-2.073-1.648-1.051-.03-2.046.473-2.075,1.541-.028,1,.49,1.408,1.846,1.652.734.129,1.033.285,1.022.637s-.27.551-.819.536c-.617-.017-.835-.288-.881-.75l-1.323-.039c.017,1.111.8,1.742,2.186,1.781,1.354.037,2.175-.519,2.2-1.626s-.665-1.441-1.944-1.665" transform="translate(25.029 46.947)" fill="#5c2705"/>
    <path id="Path_229" data-name="Path 229" d="M33.855,59.587c-.362.024-.578-.157-.608-.569l-.166-2.467,1.077-.072-.068-1.007-1.077.07-.072-1.1-1.412.092.076,1.107-.656.044.067,1.009.656-.044.176,2.594a1.464,1.464,0,0,0,1.763,1.5,2.588,2.588,0,0,0,.852-.2l-.074-1.094a1.335,1.335,0,0,1-.532.133" transform="translate(27.319 46.444)" fill="#5c2705"/>
    <path id="Path_230" data-name="Path 230" d="M39.192,54.289a2.04,2.04,0,0,0-1.508,1.227,1.409,1.409,0,0,0-1.584-.578,1.736,1.736,0,0,0-1.353,1.2l-.161-.769-1.393.29,1.051,5.024,1.393-.292-.621-2.968A.952.952,0,0,1,35.77,56.2c.492-.1.848.124.985.767l.641,3.064,1.38-.29-.621-2.968a.957.957,0,0,1,.756-1.231c.5-.105.848.124.983.767l.641,3.064,1.384-.29-.674-3.215c-.279-1.336-1.122-1.772-2.053-1.576" transform="translate(29.224 46.279)" fill="#5c2705"/>
    <path id="Path_231" data-name="Path 231" d="M40.241,54.388a1.047,1.047,0,0,1,1.454.671l-2.143.824a1.18,1.18,0,0,1,.689-1.495m2.022,2.062c.072.436-.129.817-.741,1.053a1.236,1.236,0,0,1-1.676-.8L43.3,55.38l-.142-.368a2.362,2.362,0,0,0-3.269-1.539,2.548,2.548,0,0,0-1.51,3.435l.03.074a2.488,2.488,0,0,0,3.433,1.478c1.31-.5,1.916-1.4,1.674-2.491Z" transform="translate(33.448 45.453)" fill="#5c2705"/>
    <path id="Path_232" data-name="Path 232" d="M43.513,52a1.776,1.776,0,0,0-1.029,1.609l-.386-.717-1.251.674,2.43,4.518,1.253-.673-1.4-2.609a1.016,1.016,0,0,1,.407-1.5c.554-.3.952-.133,1.284.48l1.447,2.7,1.255-.674-1.548-2.877c-.649-1.21-1.569-1.406-2.458-.928" transform="translate(35.712 44.173)" fill="#5c2705"/>
    <path id="Path_233" data-name="Path 233" d="M48.027,54.106a.525.525,0,0,1-.813-.181l-1.393-2.042.891-.608-.571-.833-.889.608-.625-.917-1.168.8.626.915-.543.371.569.833.543-.37,1.465,2.147a1.462,1.462,0,0,0,2.282.4,2.608,2.608,0,0,0,.634-.6l-.619-.907a1.334,1.334,0,0,1-.39.384" transform="translate(37.927 42.793)" fill="#5c2705"/>
    <path id="Path_234" data-name="Path 234" d="M51.444,50.323l-.813-.876-1.689,1.569L47.68,49.658l2.132-1.983-.846-.911-3.3,3.064,4.773,5.133,1.162-1.081-1.848-1.988Z" transform="translate(39.801 39.937)" fill="#5c2705"/>
    <path id="Path_235" data-name="Path 235" d="M50.587,46.325l2.3,1.94a1.022,1.022,0,0,1,.174,1.545c-.392.466-.83.468-1.362.018l-2.38-2-.911,1.081,2.53,2.131a1.677,1.677,0,0,0,2.6-.092,1.7,1.7,0,0,0,.351-1.833l.615.517.909-1.081-3.925-3.3Z" transform="translate(42.126 38.65)" fill="#5c2705"/>
    <path id="Path_236" data-name="Path 236" d="M52.05,43.628a1.768,1.768,0,0,0-.113,1.907L51.25,45.1l-.765,1.2,4.324,2.761.765-1.2-2.495-1.593a1.016,1.016,0,0,1-.377-1.508c.336-.528.769-.582,1.354-.207l2.578,1.646L57.4,45l-2.755-1.757a1.684,1.684,0,0,0-2.6.39" transform="translate(43.883 36.585)" fill="#5c2705"/>
    <path id="Path_237" data-name="Path 237" d="M56.281,42.222l.072.033c.942.436,1.177,1.118.865,1.794-.3.639-.955.876-1.881.445l-.07-.031c-.926-.429-1.231-1.055-.9-1.776.325-.7.987-.894,1.911-.466m-4.4-2,2.8,1.3a1.7,1.7,0,0,0-1.48,1.1c-.54,1.166-.05,2.461,1.48,3.171l.07.033c1.549.717,2.77.2,3.293-.928a1.863,1.863,0,0,0-.179-1.9l.774.357.593-1.281-6.761-3.13Z" transform="translate(45.065 33.308)" fill="#5c2705"/>
  </g>
  <g id="Group_7407" data-name="Group 7407" transform="translate(144.451 23.145)">
    <g id="logobottom_right" data-name="logobottom right" transform="translate(0 0)">
      <g id="Group_7212" data-name="Group 7212" transform="translate(0 0)" clip-path="url(#clip-path-2)">
        <path id="Path_5830" data-name="Path 5830" d="M46.488,20.033a3.3,3.3,0,0,1,2.734-.912,6.36,6.36,0,0,0,1.624,3.621c-.906-.055-3.406-1.658-4.358-2.709m43.358-3.261c-.379.6-.666,1.1-1,1.566a.943.943,0,0,0-.065,1.143,7.516,7.516,0,0,1,.6,1.559,5.111,5.111,0,0,1,.012,1.11,13,13,0,0,1-3.267-1.8c.271-1.119.524-2.136.786-3.218-.382-.1-.663-.163-.943-.234-.317.734-.6,1.393-.9,2.053a2.552,2.552,0,0,1-2.037,1.556c-.767.111-1.541.173-2.315.228a2.267,2.267,0,0,1-.595-.148,13.359,13.359,0,0,0,1.122-3.4c-.317-.1-.595-.2-.866-.287-.382.721-.752,1.375-1.069,2.053a3.515,3.515,0,0,1-2.58,1.92,23.7,23.7,0,0,1-6.463.475c-.8-.022-1.082-.342-1.131-1.143-.12-1.757-.222-3.513-.339-5.264-.052-.7-.12-1.4-.2-2.284-.675.971-1.242,1.763-1.778,2.58a1.221,1.221,0,0,0-.17.7c.108,1.335.253,2.669.367,4.007.031.438,0,.878,0,1.356a4.684,4.684,0,0,1-.5.071c-1.754,0-3.507,0-5.258,0a2.615,2.615,0,0,1-.74-.12,1.069,1.069,0,0,1-.832-1.328c.117-.774.265-1.541.385-2.318.074-.45.129-.906.213-1.513-.8.431-1.467.767-2.1,1.153a.811.811,0,0,0-.293.546c-.1.61-.133,1.224-.2,1.834-.071.57-.157,1.137-.24,1.735-1.51,0-2.925.015-4.339,0a1.606,1.606,0,0,1-1.227-.626A5.549,5.549,0,0,1,50.627,18.2c-.065-.33-.1-.663-.185-.986a1.111,1.111,0,0,0-1.347-.955,4.907,4.907,0,0,0-1.572.5,5.471,5.471,0,0,0-2.265,2.506c-.176.348-.336.706-.481,1.066a1.5,1.5,0,0,1-1.615,1.048c-.915-.043-1.837-.012-2.749-.012-.783,0-1.559.012-2.339-.006-.579-.012-.758-.163-.891-.681a3.4,3.4,0,0,1-.062-.583c-.24-4.352-.468-8.707-.712-13.058-.019-.284-.074-.564-.117-.841A21.5,21.5,0,0,0,34.8,8.09a2.1,2.1,0,0,0-.416,1.637c.231,2.728.428,5.458.656,8.186.139,1.646.28,3.285.468,4.922a1.821,1.821,0,0,0,1.948,1.775c1.529.031,3.06,0,4.589,0a2.683,2.683,0,0,0,2.524-1.325,3.3,3.3,0,0,1,.373-.447,15.239,15.239,0,0,0,5.523,2.98c.435-.709.82-1.344,1.242-2.028a3.222,3.222,0,0,0,2.549.832,8.417,8.417,0,0,1,1.5.006,1.364,1.364,0,0,0,1.658-1,2.648,2.648,0,0,1,.324-.586,5.334,5.334,0,0,1,.407-.435,1.823,1.823,0,0,1,.234.435,1.879,1.879,0,0,0,2.268,1.575c.08-.006.166,0,.25,0,1.643,0,3.282-.022,4.922.012a1.08,1.08,0,0,0,1.174-.69c.194-.413.472-.792.814-1.356.194.425.314.663.4.909a1.462,1.462,0,0,0,1.439,1.066c.915.018,1.834.1,2.746.049,2-.1,4.007-.2,5.834-1.479a1.044,1.044,0,0,0,1.27.962c.69-.04,1.384-.1,2.071-.194a7.551,7.551,0,0,0,3.06-1.032c1.227.684,2.315,1.35,3.461,1.9.906.444,1.171.308,1.729-.524,1.633-2.435,1.085-4.87.025-7.474" transform="translate(71.55 12.906)" fill="#5c2705"/>
        <path id="Path_5831" data-name="Path 5831" d="M113.939,17.015c-.062.157-.391.287-.607.287-2.712.015-5.434.009-8.149,0a1.786,1.786,0,0,1-.37-.129,15.625,15.625,0,0,1,4.777-3.048,1.993,1.993,0,0,1,1.621.114,7.077,7.077,0,0,1,2.54,2.111.836.836,0,0,1,.188.663m1.988-3.122A7.9,7.9,0,0,0,113.5,11.76a2.746,2.746,0,0,0-2.712-.219,22.264,22.264,0,0,0-3.165,1.667c-1.646,1.14-3.2,2.419-4.786,3.637-.222.17-.45.41-.69.435-.623.065-1.261.022-1.994.022a11.7,11.7,0,0,0,1.19-3.572l-.937-.317c-.16.348-.311.638-.422.943a4.083,4.083,0,0,1-3.8,2.8c-1.495.117-3,.114-4.494.148a1.956,1.956,0,0,1-.653-.129,1.057,1.057,0,0,1-.761-1.236c.055-.441.151-.878.222-1.316.126-.811.25-1.624.395-2.6-.69.37-1.211.678-1.76.931a1.082,1.082,0,0,0-.684,1.026c-.077,1.076-.237,2.154-.358,3.2a1.117,1.117,0,0,1-.3.111c-1.615.009-3.23.015-4.842.009a1.032,1.032,0,0,1-1-.749,4.183,4.183,0,0,1-.2-.807c-.3-1.9-.589-3.812-.888-5.711-.092-.583-.21-1.159-.342-1.892-.49.7-.863,1.251-1.254,1.794a1.026,1.026,0,0,0-.191.928c.247,1.088.435,2.191.644,3.285a15.483,15.483,0,0,1,.274,1.569c.089,1.073-.274,1.6-1.316,1.744-1.341.182-2.7.336-4.056.385-1.415.071-1.6-.145-1.738-1.563-.034-.305-.126-.481-.555-.447a16.164,16.164,0,0,0-.8,3.341c-.191,1.341.191,1.858,1.529,2.056.219.031.441.037.663.046a16.979,16.979,0,0,0,4.543-.527,1.455,1.455,0,0,0,1.217-1.094c.151-.533.345-1.066.549-1.584a.52.52,0,0,1,.354-.253c.059-.012.2.157.247.271a6.648,6.648,0,0,1,.166.647,1.986,1.986,0,0,0,2.293,1.825c1.165.009,2.336-.04,3.5.018a1.13,1.13,0,0,0,1.288-.786,2.55,2.55,0,0,1,.287-.515c.157-.234.2-.589.629-.663a4.6,4.6,0,0,1,.29.681,1.519,1.519,0,0,0,1.649,1.23c.2-.006.385.034.582.028,2.022-.012,4.062.163,6.032-.629.644.937,1.646.49,2.546.715-.379.931-.733,1.818-1.122,2.761.4.139.7.243.943.33.592-.918,1.131-1.76,1.67-2.6a1.231,1.231,0,0,1,1.193-.582c2.422.022,4.839.009,7.264.009h3.5c.308,0,.61.018.814-.3a14.257,14.257,0,0,0,2.176-4.4,2.249,2.249,0,0,0-.394-1.976" transform="translate(148.805 16.959)" fill="#5c2705"/>
        <path id="Path_5832" data-name="Path 5832" d="M34.74,12.217a1.488,1.488,0,0,1,.367-1.147c.5-.595.968-1.214,1.461-1.837-1.017-1-2.45-1.526-2.835-3.218-.582.749-1.036,1.408-1.569,2a1.152,1.152,0,0,0-.108,1.538,3.386,3.386,0,0,1,.509,1.726c.052.5.086,1,.139,1.507q.407,4.17.82,8.34a3.577,3.577,0,0,1-.025.524.98.98,0,0,1-.216.08c-2.194.006-4.392.025-6.586-.006a2.02,2.02,0,0,1-1.452-.475,12.222,12.222,0,0,0,.687-1.282,9.121,9.121,0,0,0,.419-1.442,1.891,1.891,0,0,0-.422-1.8c-1.131-1.22-3.745-2.6-6.179-1.572a.977.977,0,0,0-.539.456c-.388,1.1-.724,2.213-1.122,3.443.361.034.616.046.872.077a2.043,2.043,0,0,1,.8.142,3.036,3.036,0,0,1,1.313,1.575,5.125,5.125,0,0,1-2.484.724c-1.889.111-3.782.133-5.668.17-.918.018-1.122-.185-1.193-1.1-.055-.841-.108-1.677-.151-2.512q-.287-5.4-.564-10.8c-.018-.24-.068-.487-.1-.73-.062-.009-.123-.012-.182-.022-.428.613-.817,1.257-1.288,1.84a2.214,2.214,0,0,0-.456,1.7c.24,2.7.435,5.406.656,8.109.136,1.612.259,3.23.453,4.839.17,1.4.807,1.926,2.234,1.936,1.279.009,2.555,0,3.84,0a10.978,10.978,0,0,0,6.139-1.55c.037-.025.1,0,.234,0a3.894,3.894,0,0,0,3.473,1.523c2.53.018,5.064.015,7.591.034a.636.636,0,0,0,.709-.549c.16-.589.354-1.171.57-1.748A6.273,6.273,0,0,0,35.242,20c-.191-2.6-.327-5.187-.5-7.782" transform="translate(18.659 12.527)" fill="#5c2705"/>
        <path id="Path_5833" data-name="Path 5833" d="M17.1,16.8a5.069,5.069,0,0,1,.277-.552c.918-1.307,2.025-1.242,2.749.17a7.2,7.2,0,0,1,.724,2.419A15.959,15.959,0,0,1,17.1,16.8M6.581,16.165a16.261,16.261,0,0,1-4.118-.943,3.532,3.532,0,0,1,.546-.351c.734-.314,1.482-.613,2.219-.928.684-.284,1.433-.5,1.624-1.421.089.022.176.046.265.071.037,1.02.083,2.04.1,3.064.006.4-.317.487-.635.509m16.507,2.8c-.339-1.174-.721-2.342-1.066-3.52a4.818,4.818,0,0,0-1.1-2.133,1.608,1.608,0,0,0-2.315-.293,5.711,5.711,0,0,0-1.445,1.368,31.34,31.34,0,0,0-1.769,2.931A1.694,1.694,0,0,1,13.9,18.362c-1.029.025-2.062.037-3.088-.012A1.437,1.437,0,0,1,9.25,16.945c-.037-.222-.062-.444-.08-.666q-.277-3.759-.549-7.52c-.025-.324-.086-.638-.157-1.122-.447.518-.767.934-1.122,1.31a1.364,1.364,0,0,0-.388,1.22c.108.835.089.835-.7,1.143-1.008.394-2.031.761-3.02,1.205a2.251,2.251,0,0,0-1.011.82,19.688,19.688,0,0,0-1.467,2.9c-.447,1.131-.1,1.818,1.063,2.213,1.051.354,2.142.576,3.218.866a.667.667,0,0,0,.823-.382c.237-.413.512-.8.771-1.2.17-.256.361-.422.7-.225.111.564.2,1.147.345,1.707a2.865,2.865,0,0,0,3.057,2.407c.863.009,1.723-.022,2.583.009a2.08,2.08,0,0,0,2.148-1.273c.126-.262.29-.509.456-.8a21.9,21.9,0,0,0,5.572,2.694c.558-.934,1.082-1.788,1.575-2.663a.905.905,0,0,0,.025-.619" transform="translate(1.176 15.902)" fill="#5c2705"/>
        <path id="Path_5834" data-name="Path 5834" d="M59.463,21.74c-.025-.08-.046-.166-.065-.247.5-.361,1.011-.709,1.5-1.085s.955-.764,1.424-1.147a4.148,4.148,0,0,1,1.214,2.459c-1.365.04-2.721.012-4.074.018m7.97-12.491C66.5,8.275,65.325,7.6,65.11,6.019c-.558.724-.986,1.338-1.476,1.892a1.248,1.248,0,0,0-.139,1.677,2.887,2.887,0,0,1,.468,1.738c.006.419.062.835.077,1.254A5.321,5.321,0,0,1,62.835,16.4c-.219-.259-.367-.428-.5-.6A31.923,31.923,0,0,0,57.4,10.707c-1.008-.829-2.12-1.529-3.205-2.262a5.684,5.684,0,0,0-.928-.413,8.861,8.861,0,0,0-.478,2.78A2.412,2.412,0,0,0,53.947,13c.82.542,1.646,1.051,2.469,1.569a.6.6,0,0,0,.222.04c.12-.228.228-.431.348-.675a20.547,20.547,0,0,1,4.46,3.893,1.083,1.083,0,0,1-.089.237,20.117,20.117,0,0,1-4.284,3.313c-.163.086-.4.2-.435.336-.206,1.057-.379,2.114-.558,3.15a1.133,1.133,0,0,0,.268.1c2.533.012,5.064.015,7.591.031a.527.527,0,0,0,.57-.481c.145-.656.29-1.31.425-1.969a5.031,5.031,0,0,0-.287-3.116c-.179-.41-.354-.817-.558-1.22a.637.637,0,0,1,.071-.764,7.109,7.109,0,0,0,1.513-5.011,2,2,0,0,1,.481-1.461c.456-.546.851-1.14,1.279-1.723" transform="translate(109.902 12.533)" fill="#5c2705"/>
        <path id="Path_5835" data-name="Path 5835" d="M71.713,13.147c-.545-.29-.579-.456-.268-.986a1.548,1.548,0,0,1,2.623-.394A3.569,3.569,0,0,1,75.149,13.6a5.023,5.023,0,0,1-3.436-.45M77.245,13A8.873,8.873,0,0,0,75.87,9.436c-1.045-1.461-2.29-1.627-3.591-.428a7.539,7.539,0,0,0-2.463,5.418,1.644,1.644,0,0,0,1.017,1.667,4.449,4.449,0,0,0,2.352.428,2.023,2.023,0,0,0,1.008-.505,6.584,6.584,0,0,0,.7-.835c.139-.154.391-.4.487-.358a.92.92,0,0,1,.432.527c.157.616.234,1.254.364,1.877a1.5,1.5,0,0,1-.937,1.744,13.772,13.772,0,0,1-7.082,1.883,5.191,5.191,0,0,1-2.478-.644,2.955,2.955,0,0,1-1.655-3.267,27,27,0,0,1,.706-2.746c.1-.345.253-.669.395-1.045-.367-.243-.552-.145-.7.12-.37.653-.764,1.294-1.1,1.972a9.39,9.39,0,0,0-1.008,4.86A3.929,3.929,0,0,0,65.487,24a10.169,10.169,0,0,0,4.386.068,14.051,14.051,0,0,0,6.068-2.826,2.184,2.184,0,0,0,.764-1.057A13.778,13.778,0,0,0,77.245,13" transform="translate(129.703 17.098)" fill="#5c2705"/>
        <path id="Path_5836" data-name="Path 5836" d="M24.555,10.686c-.179.57-.361,1.094-.509,1.633a1.65,1.65,0,0,0,1.165,2.241,6.071,6.071,0,0,0,1.868.351c3.865.031,7.733.018,11.591.018a2.087,2.087,0,0,0,.314-.04c.108-.866-.052-1.177-1.621-3.076L38.9,9.287a8.122,8.122,0,0,1,.616,8.9h-.854c-3.7,0-7.4.006-11.092-.006-.53,0-1.054-.043-1.581-.1a3.369,3.369,0,0,1-3.267-4.278,8.272,8.272,0,0,1,1.168-2.937c.136-.228.287-.422.669-.185" transform="translate(47.148 19.337)" fill="#5c2705"/>
        <path id="Path_5837" data-name="Path 5837" d="M73.975,14.137c-.669-.364-.715-.635-.256-1.245a1.419,1.419,0,0,1,2.444-.157,4.16,4.16,0,0,1,1.094,1.754,4.974,4.974,0,0,1-3.282-.351M78.2,11.431A6.668,6.668,0,0,0,77.067,9.69a1.546,1.546,0,0,0-2.114-.348,5.648,5.648,0,0,0-1.507,1.279,6.731,6.731,0,0,0-1.412,3.7,2.453,2.453,0,0,0,1.951,2.946,8.042,8.042,0,0,0,.823.139,1.74,1.74,0,0,0,1.714-.629c.234-.268.407-.6.635-.878a.542.542,0,0,1,.388-.231c.123.018.262.182.324.314a1.377,1.377,0,0,1-.179,1.35,12.465,12.465,0,0,1-4.765,4.463,5.841,5.841,0,0,1-5.058.5,1.5,1.5,0,0,0-.558-.145c-.142.015-.271.173-.567.373A20.891,20.891,0,0,0,72.73,24.69a3.563,3.563,0,0,0,2.9-.749,6.322,6.322,0,0,0,1.341-1.365A11.278,11.278,0,0,0,78.2,11.431" transform="translate(138.957 18.888)" fill="#5c2705"/>
        <path id="Path_5838" data-name="Path 5838" d="M36.753,12.738c.462-.915.943-1.855,1.458-2.866.2.182.373.3.509.453a8.4,8.4,0,0,1,2.441,6.293,9.552,9.552,0,0,1-2.842,6.263,3.652,3.652,0,0,1-3.742,1.039,20.952,20.952,0,0,1-4.719-1.932l.228-.465c.684.157,1.331.3,1.976.462a3.341,3.341,0,0,0,2.268-.287,13.665,13.665,0,0,0,5.07-4.121c.721-.937.721-1.307-.068-2.2s-1.661-1.711-2.58-2.635" transform="translate(62.167 20.555)" fill="#5c2705"/>
        <path id="Path_5839" data-name="Path 5839" d="M60.713,6.215c.031.305.089.6.1.912q.2,4.6.4,9.2c.052,1.227.117,2.453.145,3.683a9.394,9.394,0,0,1-.7,3.677A12.9,12.9,0,0,1,59.983,25a1.522,1.522,0,0,1-.176-.022c-.062-.4-.139-.786-.173-1.19-.247-3.027-.484-6.059-.73-9.092-.136-1.615-.293-3.224-.413-4.839a1.485,1.485,0,0,1,.133-.875c.61-.959,1.285-1.877,1.935-2.808l.154.037" transform="translate(121.757 12.864)" fill="#5c2705"/>
        <path id="Path_5840" data-name="Path 5840" d="M20.08,25.062c-.071-.715-.151-1.43-.206-2.151q-.374-4.6-.737-9.191-.148-1.882-.321-3.76A1.571,1.571,0,0,1,19.14,8.8c.61-.823,1.18-1.677,1.889-2.684.071,1.11.151,2.019.2,2.922.163,3.6.354,7.2.475,10.806a9.506,9.506,0,0,1-.962,4.546c-.129.265-.311.505-.468.761-.065-.034-.126-.055-.191-.083" transform="translate(39.156 12.724)" fill="#5c2705"/>
        <path id="Path_5841" data-name="Path 5841" d="M31.943,6.221c.059.968.129,1.929.176,2.894.166,3.52.354,7.039.475,10.559a9.552,9.552,0,0,1-.977,4.629c-.129.256-.314.487-.472.734-.059-.018-.114-.031-.17-.049-.077-.823-.157-1.646-.228-2.475q-.495-5.88-.983-11.776a.352.352,0,0,0-.006-.083A2.854,2.854,0,0,1,30.426,8.1c.518-.6.928-1.291,1.384-1.936l.133.055" transform="translate(61.818 12.839)" fill="#5c2705"/>
        <path id="Path_5842" data-name="Path 5842" d="M4.059,7.6c.339-.385.638-.74,1-1.147.74.456,1.464.906,2.293,1.418C6.8,8.581,6.306,9.234,5.761,9.949c-.65-.379-1.27-.734-1.954-1.125-.311.361-.613.709-.949,1.11C2.1,9.487,1.369,9.058.546,8.568c.549-.73,1.054-1.4,1.59-2.12L4.059,7.6" transform="translate(1.137 13.426)" fill="#5c2705"/>
        <path id="Path_5843" data-name="Path 5843" d="M43.961,8.9c.552-.743,1.045-1.405,1.584-2.12.647.385,1.254.749,1.929,1.153.311-.37.61-.724.977-1.156.746.459,1.486.922,2.305,1.427-.549.715-1.051,1.365-1.593,2.071-.663-.385-1.276-.743-1.936-1.122-.336.376-.641.715-.98,1.1-.755-.441-1.476-.872-2.287-1.353" transform="translate(91.527 14.109)" fill="#5c2705"/>
        <path id="Path_5844" data-name="Path 5844" d="M66.452,6.473c.666.407,1.248.761,1.914,1.165.317-.37.62-.718.992-1.15.74.447,1.482.9,2.293,1.408-.536.715-1.036,1.365-1.572,2.077-.653-.373-1.273-.724-1.96-1.116-.305.364-.607.709-.952,1.116-.746-.447-1.476-.878-2.3-1.365.539-.73,1.032-1.393,1.584-2.136" transform="translate(135.056 13.478)" fill="#5c2705"/>
        <path id="Path_5845" data-name="Path 5845" d="M43.264,11.3c-.777-.462-1.486-.894-2.3-1.375.536-.715,1.029-1.368,1.575-2.1.656.382,1.27.737,1.948,1.128.311-.367.61-.721.968-1.15.743.459,1.47.909,2.287,1.408-.493.746-1.036,1.393-1.569,2.083-.684-.391-1.31-.743-1.954-1.11-.324.373-.613.709-.958,1.11" transform="translate(85.296 16.26)" fill="#5c2705"/>
        <path id="Path_5846" data-name="Path 5846" d="M31.211,9.26c-.564.734-1.051,1.368-1.584,2.065l-1.966-1.106c-.3.345-.595.7-.949,1.11-.743-.441-1.47-.872-2.305-1.371.555-.734,1.06-1.405,1.584-2.108.681.4,1.294.755,1.942,1.137.324-.382.6-.715.962-1.15.74.456,1.482.912,2.318,1.424" transform="translate(50.814 16.316)" fill="#5c2705"/>
        <path id="Path_5847" data-name="Path 5847" d="M78.087,7.7c.888.564,1.68,1.06,2.58,1.633L79,11.553c-.844-.527-1.658-1.029-2.58-1.6C76.978,9.2,77.492,8.5,78.087,7.7" transform="translate(159.113 16.026)" fill="#5c2705"/>
        <path id="Path_5848" data-name="Path 5848" d="M41.289,8.752c.542-.721,1.02-1.356,1.55-2.059.792.487,1.538.949,2.392,1.47-.518.681-1,1.31-1.544,2.04-.771-.465-1.519-.922-2.4-1.452" transform="translate(85.964 13.936)" fill="#5c2705"/>
        <path id="Path_5849" data-name="Path 5849" d="M3.538,18.628v4.2h5.3c1.664,0,2.469-.823,2.469-2.1,0-1.356-.78-2.1-2.469-2.1ZM.712,16.082H8.981c3.375,0,5.236,1.615,5.236,4.6,0,2.906-1.862,4.691-5.236,4.691H3.538v5.763H.712Z" transform="translate(1.482 33.484)" fill="#5c2705"/>
        <path id="Path_5850" data-name="Path 5850" d="M5.942,23.488v-6h2.7v5.7c0,1.677.888,2.78,2.546,2.78s2.552-1.1,2.552-2.78v-5.7H16.47v6c0,2.885-1.92,4.965-5.233,4.965-3.378,0-5.295-2.08-5.295-4.965" transform="translate(12.371 36.409)" fill="#5c2705"/>
        <path id="Path_5851" data-name="Path 5851" d="M16.094,29.371a3,3,0,0,0,3.02-3.221,3.035,3.035,0,1,0-6.059,0,3.014,3.014,0,0,0,3.039,3.221M13.08,31.513H10.445V15.9H13.1v6.58a4.169,4.169,0,0,1,3.668-1.936c2.8,0,5.085,2.1,5.085,5.6s-2.281,5.6-5.085,5.6A4.208,4.208,0,0,1,13.08,29.88Z" transform="translate(21.747 33.111)" fill="#5c2705"/>
        <rect id="Rectangle_214" data-name="Rectangle 214" width="2.703" height="15.61" transform="translate(46.495 49.016)" fill="#5c2705"/>
        <path id="Path_5852" data-name="Path 5852" d="M17.129,31.558h2.7V20.823h-2.7ZM17.07,19.107h2.8V15.883h-2.8Z" transform="translate(35.54 33.07)" fill="#5c2705"/>
        <path id="Path_5853" data-name="Path 5853" d="M24.387,19.795A2.963,2.963,0,0,0,21.6,23.037a2.956,2.956,0,0,0,2.8,3.248,2.733,2.733,0,0,0,2.558-1.424H29.6c-.1,1.125-1.412,3.822-5.233,3.822a5.422,5.422,0,0,1-5.5-5.646,5.4,5.4,0,0,1,5.48-5.64c3.8,0,5.085,2.651,5.255,3.822H26.923a2.785,2.785,0,0,0-2.536-1.424" transform="translate(39.275 36.222)" fill="#5c2705"/>
        <rect id="Rectangle_215" data-name="Rectangle 215" width="2.845" height="15.062" transform="translate(76.455 49.565)" fill="#5c2705"/>
        <path id="Path_5854" data-name="Path 5854" d="M29.666,28.376H26.988V17.647h2.678v1.8A4.068,4.068,0,0,1,33.2,17.41a4.375,4.375,0,0,1,4.457,4.709v6.256H34.943V22.652a2.539,2.539,0,0,0-2.6-2.82,2.6,2.6,0,0,0-2.678,2.82Z" transform="translate(56.189 36.249)" fill="#5c2705"/>
        <path id="Path_5855" data-name="Path 5855" d="M38.316,28.364H35.782L30.928,17.487h3.039L37.111,25l3.147-7.508h2.761Z" transform="translate(64.392 36.41)" fill="#5c2705"/>
        <path id="Path_5856" data-name="Path 5856" d="M37.97,21.618h5.569a2.742,2.742,0,0,0-2.765-2.12,2.7,2.7,0,0,0-2.8,2.12m8.4,1.572v.3H37.884a3.028,3.028,0,0,0,3.107,2.943,2.884,2.884,0,0,0,2.589-1.165h2.66c-.166,1.1-1.627,3.418-5.249,3.418a5.51,5.51,0,0,1-5.807-5.643A5.387,5.387,0,0,1,40.775,17.4c3.292,0,5.591,2.293,5.591,5.794" transform="translate(73.253 36.22)" fill="#5c2705"/>
        <path id="Path_5857" data-name="Path 5857" d="M43.636,24.027c-2.342-.173-3.923-1.273-3.923-3.35,0-2.013,1.834-3.285,4.7-3.285,3.843,0,4.937,1.994,5.23,3.027H46.8a2.822,2.822,0,0,0-2.407-.974c-1.285,0-1.963.428-1.963,1.082,0,.595.444.974,1.519,1.128l1.815.188c2.891.256,4.071,1.356,4.071,3.477,0,2.019-1.664,3.4-4.937,3.4-3.967,0-5.252-2.315-5.461-3.307h2.894c.1.253.755,1.2,2.567,1.2,1.5,0,2.194-.505,2.194-1.183,0-.656-.376-1.06-1.581-1.208-.755-.065-1.137-.108-1.877-.191" transform="translate(82.11 36.209)" fill="#5c2705"/>
        <path id="Path_5858" data-name="Path 5858" d="M52.964,31.139H50.011c-2.533,0-3.7-1.208-3.7-3.5V22.722H43.385V20.41h2.931V16.083h2.7V20.41h3.948v2.312H49.016v4.093c0,1.359.444,1.9,1.9,1.9h2.043Z" transform="translate(90.328 33.486)" fill="#5c2705"/>
        <path id="Path_5859" data-name="Path 5859" d="M50.1,28.376H47.423V17.647H50.1v1.8a4.021,4.021,0,0,1,3.5-2.037,4.094,4.094,0,0,1,3.883,2.4,4.245,4.245,0,0,1,3.92-2.4c2.7,0,4.432,1.972,4.432,4.709v6.256h-2.7V22.652c0-1.7-.949-2.82-2.53-2.82a2.582,2.582,0,0,0-2.638,2.82v5.723h-2.7V22.652c0-1.7-.946-2.82-2.533-2.82a2.576,2.576,0,0,0-2.635,2.82Z" transform="translate(98.735 36.249)" fill="#5c2705"/>
        <path id="Path_5860" data-name="Path 5860" d="M57.049,21.618h5.575A2.745,2.745,0,0,0,59.86,19.5a2.706,2.706,0,0,0-2.811,2.12m8.4,1.572v.3H56.966a3.03,3.03,0,0,0,3.107,2.943,2.891,2.891,0,0,0,2.592-1.165h2.66c-.173,1.1-1.627,3.418-5.252,3.418a5.508,5.508,0,0,1-5.8-5.643A5.387,5.387,0,0,1,59.86,17.4c3.292,0,5.591,2.293,5.591,5.794" transform="translate(112.989 36.22)" fill="#5c2705"/>
        <path id="Path_5861" data-name="Path 5861" d="M61.467,28.376H58.792V17.647h2.675v1.8a4.077,4.077,0,0,1,3.538-2.037,4.376,4.376,0,0,1,4.46,4.709v6.256H66.747V22.652a2.542,2.542,0,0,0-2.6-2.82,2.6,2.6,0,0,0-2.678,2.82Z" transform="translate(122.405 36.249)" fill="#5c2705"/>
        <path id="Path_5862" data-name="Path 5862" d="M72.509,31.139H69.556c-2.53,0-3.7-1.208-3.7-3.5V22.722H62.93V20.41h2.931V16.083h2.7V20.41h3.945v2.312H68.564v4.093c0,1.359.441,1.9,1.9,1.9h2.043Z" transform="translate(131.021 33.486)" fill="#5c2705"/>
        <path id="Path_5863" data-name="Path 5863" d="M68.519,16.082H81.2v2.481H71.345V22.1h5.674v2.484H71.345v6.549H68.519Z" transform="translate(142.657 33.485)" fill="#5c2705"/>
        <path id="Path_5864" data-name="Path 5864" d="M73.04,23.488v-6h2.7v5.7c0,1.677.888,2.78,2.546,2.78s2.552-1.1,2.552-2.78v-5.7h2.728v6c0,2.885-1.92,4.965-5.233,4.965-3.378,0-5.295-2.08-5.295-4.965" transform="translate(152.07 36.409)" fill="#5c2705"/>
        <path id="Path_5865" data-name="Path 5865" d="M80.22,28.376H77.542V17.647H80.22v1.8a4.068,4.068,0,0,1,3.538-2.037,4.375,4.375,0,0,1,4.457,4.709v6.256H85.5V22.652a2.539,2.539,0,0,0-2.6-2.82,2.6,2.6,0,0,0-2.678,2.82Z" transform="translate(161.443 36.249)" fill="#5c2705"/>
        <path id="Path_5866" data-name="Path 5866" d="M87.684,22.922a3.008,3.008,0,0,0-3.06,3.221,3.036,3.036,0,1,0,6.059,0,2.985,2.985,0,0,0-3-3.221m2.974,6.894a4.123,4.123,0,0,1-3.692,1.929c-2.783,0-5.085-2.1-5.085-5.6s2.3-5.594,5.085-5.594a4.117,4.117,0,0,1,3.668,1.846V15.9h2.7V31.511H90.659Z" transform="translate(170.477 33.113)" fill="#5c2705"/>
        <path id="Path_5867" data-name="Path 5867" d="M64.409,10.673a2.1,2.1,0,0,1-.885-.173,2.041,2.041,0,0,1-.613-.431,1.779,1.779,0,0,1-.364-.555,1.514,1.514,0,0,1-.117-.546A4.6,4.6,0,0,1,62.575,7.8a4.1,4.1,0,0,1,.533-1.174l.274.111a4.2,4.2,0,0,0-.321,1.412,1,1,0,0,0,.077.364,1.013,1.013,0,0,0,.284.385,1.658,1.658,0,0,0,.561.308,2.765,2.765,0,0,0,.909.123h6.919a1.628,1.628,0,0,0-.083-.527,2.514,2.514,0,0,0-.207-.453,2.543,2.543,0,0,0-.274-.385c-.1-.117-.194-.219-.28-.311l.65-1.5a5.936,5.936,0,0,1,.327.552c.1.206.2.416.284.629a4.943,4.943,0,0,1,.2.65,2.662,2.662,0,0,1,.08.613,2.58,2.58,0,0,1-.028.367,3.719,3.719,0,0,1-.092.435c-.043.163-.1.348-.16.555s-.142.45-.234.724ZM68.421,5.5l-1.11-.66-.5.66-1.165-.687.789-1.051,1.1.678.515-.678,1.162.712Zm7.409,5.169a.858.858,0,0,1-.422-.1.808.808,0,0,1-.247-.179,1.134,1.134,0,0,1-.213-.422,3.358,3.358,0,0,1-.108-.641c-.031-.361-.065-.749-.1-1.168s-.074-.848-.111-1.291-.074-.891-.108-1.344-.074-.891-.111-1.319-.071-.835-.1-1.224-.059-.737-.083-1.048L75.106.441l.53,8.053a1.347,1.347,0,0,0,.151.589.5.5,0,0,0,.481.243h1.174v1.347Zm7.452-9.234c-.416.176-.866.367-1.356.57s-.983.416-1.489.632-1,.431-1.489.644-.94.41-1.356.6c.293.2.632.447,1.017.734s.767.592,1.15.912.74.644,1.073.971a6.51,6.51,0,0,1,.792.912,3.653,3.653,0,0,1,.367.65,1.755,1.755,0,0,1,.129.7,2.125,2.125,0,0,1-.055.465c-.037.166-.083.33-.133.5s-.108.327-.166.49-.111.314-.16.462H77.439a.921.921,0,0,1-.216-.028A1.113,1.113,0,0,1,77,10.568a.565.565,0,0,1-.173-.129.259.259,0,0,1-.068-.179V9.739a.271.271,0,0,1,.068-.188A.565.565,0,0,1,77,9.422a.94.94,0,0,1,.222-.074,1.381,1.381,0,0,1,.216-.022h3.985a1.781,1.781,0,0,0-.367-.771,6.434,6.434,0,0,0-.764-.829c-.305-.277-.635-.555-.989-.829s-.7-.53-1.032-.767l-.055.456-1.054-.53a1.133,1.133,0,0,1-.641-1.11,2.59,2.59,0,0,1,.176-.869,5.4,5.4,0,0,1,.539-1.063,1.221,1.221,0,0,1,.416-.311c.231-.129.524-.274.881-.441s.764-.345,1.217-.539.934-.4,1.433-.6L83.9,0Zm7.28,9.234a1.985,1.985,0,0,1-.515-.068.873.873,0,0,1-.447-.28l-.136.074a4.1,4.1,0,0,1-.16.955,5.137,5.137,0,0,1-.382.949,5.871,5.871,0,0,1-.549.866,4.466,4.466,0,0,1-.669.709,3.177,3.177,0,0,1-.743.481,1.77,1.77,0,0,1-.758.179,4.09,4.09,0,0,1-1.261-.222,10.922,10.922,0,0,1-1.646-.74l.111-.274q.282.092.49.157c.136.043.265.077.379.1a2.949,2.949,0,0,0,.327.059,2.656,2.656,0,0,0,.324.018,2.771,2.771,0,0,0,.931-.17,5.026,5.026,0,0,0,.931-.441,6.768,6.768,0,0,0,1.556-1.291,3.819,3.819,0,0,0,.478-.65A1.11,1.11,0,0,0,89,10.581a.563.563,0,0,0-.049-.206,2.544,2.544,0,0,0-.139-.274c-.059-.1-.123-.2-.2-.311s-.148-.216-.228-.324c-.129-.173-.25-.342-.367-.515s-.231-.342-.348-.512l.558-1.31c.074.108.145.219.206.33s.136.222.216.339c.117.176.243.354.382.533a3.6,3.6,0,0,0,.447.493A2.61,2.61,0,0,0,90,9.184a1.235,1.235,0,0,0,.576.142H91.1v1.347Zm9.961-4.022c.037.08.086.191.148.339s.123.311.182.49a5.212,5.212,0,0,1,.157.564,2.583,2.583,0,0,1,.065.558,3.759,3.759,0,0,1-.077.737,2.679,2.679,0,0,1-.317.786,4.464,4.464,0,0,1-.339.518.454.454,0,0,1-.367.17.667.667,0,0,1-.228-.065c-.1-.043-.222-.1-.354-.166s-.271-.142-.419-.228-.293-.173-.428-.262-.256-.173-.37-.256a2.234,2.234,0,0,1-.253-.206,1.748,1.748,0,0,1-.576.354,5.01,5.01,0,0,1-.771.231,6.356,6.356,0,0,1-.829.133c-.277.028-.527.043-.746.043a.714.714,0,0,1-.487-.133.479.479,0,0,1-.136-.354h-.065a1.407,1.407,0,0,1-.509.327,4.9,4.9,0,0,1-.783.243,8.163,8.163,0,0,1-.943.151,9.752,9.752,0,0,1-.98.049.921.921,0,0,1-.216-.028,1.113,1.113,0,0,1-.222-.077.565.565,0,0,1-.173-.129.259.259,0,0,1-.068-.179V9.739a.271.271,0,0,1,.068-.188.565.565,0,0,1,.173-.129.939.939,0,0,1,.222-.074,1.381,1.381,0,0,1,.216-.022c.1,0,.2,0,.3,0s.2-.009.3-.015a8.679,8.679,0,0,0,1-.111,6.007,6.007,0,0,0,.885-.213,3.708,3.708,0,0,0,.69-.305,1.247,1.247,0,0,0,.431-.37c.176-.262.333-.518.472-.771a6.473,6.473,0,0,0,.388-.851l.468.163a8.336,8.336,0,0,1-.321.946,5.588,5.588,0,0,1-.376.767c-.037.068-.074.133-.114.2a.468.468,0,0,0-.062.114c0,.092.17.139.505.139a5.14,5.14,0,0,0,.521-.028,4.518,4.518,0,0,0,.542-.086,4.414,4.414,0,0,0,.509-.148,1.87,1.87,0,0,0,.416-.206,1.082,1.082,0,0,0,.308-.333,5.212,5.212,0,0,0,.265-.49c.083-.179.154-.361.219-.546l.169-.49.468.136c-.025.129-.055.271-.092.422s-.077.305-.12.453-.086.3-.136.441-.1.274-.148.388a1.776,1.776,0,0,0,.354.311c.173.129.361.256.558.376s.385.228.558.317a1.042,1.042,0,0,0,.345.133.088.088,0,0,0,.074-.037.151.151,0,0,0,.037-.111c0-.034-.006-.114-.009-.237a2.869,2.869,0,0,0-.065-.441,3.139,3.139,0,0,0-.179-.549,2.226,2.226,0,0,0-.345-.558Zm-1.6-1.6-1.106-.66-.505.66-1.162-.687.786-1.054,1.1.678.512-.678,1.165.715Zm-.989-1.593-1.19-.724L97.5,1.714l1.193.743Zm15.481,3.2a.407.407,0,0,0-.216-.361,1.033,1.033,0,0,0-.5-.108,1.511,1.511,0,0,0-.672.216,4.192,4.192,0,0,0-.771.546,3.779,3.779,0,0,0-.632.724,1.367,1.367,0,0,0-.262.743.31.31,0,0,0,.157.247,1.418,1.418,0,0,0,.431.191,5.244,5.244,0,0,0,.66.148q.384.065.851.12a5.777,5.777,0,0,1,.619.108,1.132,1.132,0,0,1,.425.194.747.747,0,0,1,.244.351,1.813,1.813,0,0,1,.077.582,1.885,1.885,0,0,1-.049.4,3.977,3.977,0,0,1-.139.472c-.059.16-.123.324-.191.484s-.142.311-.216.447c-.256.188-.558.4-.9.626a9.554,9.554,0,0,1-1.131.647,8.008,8.008,0,0,1-1.31.5,5.034,5.034,0,0,1-1.433.2,4.061,4.061,0,0,1-1.476-.234,2.619,2.619,0,0,1-.934-.6,2.15,2.15,0,0,1-.49-.844,3.206,3.206,0,0,1-.142-.94,4.734,4.734,0,0,1,.114-1.066,6.564,6.564,0,0,1,.293-.94,7.385,7.385,0,0,1,.4-.829c.151-.259.3-.5.435-.727l.277.111c-.092.213-.179.419-.259.616s-.148.4-.21.6a4.769,4.769,0,0,0-.142.613,4.124,4.124,0,0,0-.049.66,2.036,2.036,0,0,0,.2.922,2.116,2.116,0,0,0,.552.687,2.42,2.42,0,0,0,.792.425,2.961,2.961,0,0,0,.934.148,5.036,5.036,0,0,0,1.288-.176,8.081,8.081,0,0,0,1.273-.447,8.69,8.69,0,0,0,1.137-.619,6.325,6.325,0,0,0,.875-.672.171.171,0,0,0-.089-.136,1.136,1.136,0,0,0-.305-.114,5.306,5.306,0,0,0-.592-.1c-.247-.031-.558-.062-.931-.092a5.185,5.185,0,0,1-.672-.1,2.453,2.453,0,0,1-.573-.188,1.207,1.207,0,0,1-.4-.29.578.578,0,0,1-.151-.4,3.742,3.742,0,0,1,.151-1.023,5.425,5.425,0,0,1,.416-1.054,6.576,6.576,0,0,1,.619-.983,5.382,5.382,0,0,1,.755-.82,3.95,3.95,0,0,1,.829-.564,1.845,1.845,0,0,1,.829-.21c.416,0,.623.247.623.74a1.06,1.06,0,0,1-.028.206c-.018.089-.043.188-.074.293s-.065.219-.1.336-.074.222-.111.321Zm7.939,4.022a.722.722,0,0,1-.4-.1.86.86,0,0,1-.225-.179,1.38,1.38,0,0,1-.243-.505,4.32,4.32,0,0,1-.142-.715h-.185a5.572,5.572,0,0,1-.228.724c-.086.222-.16.4-.228.542a2.78,2.78,0,0,1-.422.154q-.273.083-.647.157c-.247.049-.518.089-.82.123a8.3,8.3,0,0,1-.934.049,5.784,5.784,0,0,1-.718-.037,1.425,1.425,0,0,1-.468-.126.574.574,0,0,1-.256-.25.884.884,0,0,1-.077-.4,2.715,2.715,0,0,1,.046-.478c.031-.17.065-.342.1-.512s.083-.336.133-.49l.129-.41.3.083v.669a.431.431,0,0,0,.228.376,1.581,1.581,0,0,0,.807.148c.268,0,.536-.012.811-.037s.53-.059.774-.1a6.188,6.188,0,0,0,.66-.136,3.121,3.121,0,0,0,.475-.16A4.112,4.112,0,0,0,120,8.553a3.378,3.378,0,0,0,.1-.592l-.542-2.721.7-1.31c.148.851.277,1.686.395,2.506s.265,1.652.45,2.487a.681.681,0,0,0,.228.293.621.621,0,0,0,.385.111h.915v1.347Zm9.486-1.584a3.444,3.444,0,0,1-.743-.111,2.584,2.584,0,0,0-.687-.092,1.834,1.834,0,0,0-.512.074,3.828,3.828,0,0,0-.505.185,4.428,4.428,0,0,0-.481.247c-.154.092-.3.179-.444.265-.219.136-.447.262-.678.385a4.821,4.821,0,0,1-.774.324,5.85,5.85,0,0,1-.958.225,7.923,7.923,0,0,1-1.217.083h-1.2a.921.921,0,0,1-.216-.028,1.112,1.112,0,0,1-.222-.077.564.564,0,0,1-.173-.129.259.259,0,0,1-.068-.179V9.739a.272.272,0,0,1,.068-.188.564.564,0,0,1,.173-.129.939.939,0,0,1,.222-.074,1.381,1.381,0,0,1,.216-.022h1.566a6.721,6.721,0,0,0,1.365-.123,8.6,8.6,0,0,0,1.073-.293,8.145,8.145,0,0,0,.851-.358c.25-.126.484-.231.7-.317-.287-.108-.564-.225-.835-.342s-.53-.231-.792-.33a7.378,7.378,0,0,0-.764-.253,2.851,2.851,0,0,0-.752-.1.787.787,0,0,0-.324.062.873.873,0,0,0-.234.151,1.028,1.028,0,0,0-.173.2c-.049.068-.1.136-.148.2l-.265-.148c.12-.305.24-.573.358-.8a2.675,2.675,0,0,1,.376-.573,1.281,1.281,0,0,1,1.017-.459,2.144,2.144,0,0,1,.515.071c.188.046.385.1.6.179s.428.157.66.256.462.2.7.311c.28.129.57.256.866.385s.589.243.875.348a7.167,7.167,0,0,0,.851.253,3.81,3.81,0,0,0,.807.1Zm4.3,4.4c-.194.046-.41.108-.65.179a3.5,3.5,0,0,0-.6.231,1.292,1.292,0,0,0-.348.262,2.839,2.839,0,0,0-.293.354l-.228-.1a1.745,1.745,0,0,1,.154-.413,1.527,1.527,0,0,1,.293-.4,1.211,1.211,0,0,1-.438-.277.542.542,0,0,1-.176-.382A.986.986,0,0,1,133,12.47a2.264,2.264,0,0,1,.367-.5,2.519,2.519,0,0,1,.475-.4.914.914,0,0,1,.478-.163.443.443,0,0,1,.342.123.41.41,0,0,1,.114.29.711.711,0,0,1-.191.465.965.965,0,0,0-.613-.219.718.718,0,0,0-.376.111.345.345,0,0,0-.182.321.323.323,0,0,0,.077.213.672.672,0,0,0,.2.166,1.124,1.124,0,0,0,.274.1,1.224,1.224,0,0,0,.29.037,1.965,1.965,0,0,0,.512-.083c.2-.055.431-.123.687-.21Zm-.888-2.814-.715-8.667.878-1.5q.1,1.567.176,2.728c.049.771.092,1.436.129,1.991s.065,1.017.089,1.384.043.663.056.888l.028.509c.006.114.009.2.009.253a5.756,5.756,0,0,1-.055.829c-.037.253-.083.484-.136.693a4.54,4.54,0,0,1-.179.536,2.71,2.71,0,0,1-.188.361Z" transform="translate(129.98 0.001)" fill="#5c2705"/>
      </g>
    </g>
  </g>
</svg>
