<svg xmlns="http://www.w3.org/2000/svg" width="17.125" height="17.125" viewBox="0 0 17.125 17.125">
  <path id="Icon_awesome-linkedin" data-name="Icon awesome-linkedin" d="M15.9,2.25H1.219A1.229,1.229,0,0,0,0,3.485V18.14a1.229,1.229,0,0,0,1.219,1.235H15.9a1.232,1.232,0,0,0,1.223-1.235V3.485A1.232,1.232,0,0,0,15.9,2.25ZM5.176,16.929H2.638V8.756H5.18v8.173ZM3.907,7.64A1.472,1.472,0,1,1,5.378,6.168,1.472,1.472,0,0,1,3.907,7.64ZM14.69,16.929H12.152V12.953c0-.948-.019-2.167-1.319-2.167-1.323,0-1.525,1.032-1.525,2.1v4.044H6.77V8.756H9.2V9.872h.034a2.673,2.673,0,0,1,2.4-1.319c2.569,0,3.047,1.693,3.047,3.9Z" transform="translate(0 -2.25)" fill="#5c2705"/>
</svg>
