<svg xmlns="http://www.w3.org/2000/svg" width="23.884" height="23.878" viewBox="0 0 23.884 23.878">
  <path id="Icon_awesome-instagram" data-name="Icon awesome-instagram" d="M11.939,8.055a6.122,6.122,0,1,0,6.122,6.122A6.112,6.112,0,0,0,11.939,8.055Zm0,10.1a3.98,3.98,0,1,1,3.98-3.98,3.987,3.987,0,0,1-3.98,3.98ZM19.74,7.8a1.428,1.428,0,1,1-1.428-1.428A1.425,1.425,0,0,1,19.74,7.8Zm4.055,1.449a7.067,7.067,0,0,0-1.929-5,7.113,7.113,0,0,0-5-1.929c-1.971-.112-7.88-.112-9.852,0a7.1,7.1,0,0,0-5,1.923,7.09,7.09,0,0,0-1.929,5c-.112,1.971-.112,7.88,0,9.852a7.067,7.067,0,0,0,1.929,5,7.122,7.122,0,0,0,5,1.929c1.971.112,7.88.112,9.852,0a7.067,7.067,0,0,0,5-1.929,7.113,7.113,0,0,0,1.929-5c.112-1.971.112-7.875,0-9.846ZM21.247,21.215a4.03,4.03,0,0,1-2.27,2.27c-1.572.623-5.3.48-7.039.48s-5.472.139-7.039-.48a4.03,4.03,0,0,1-2.27-2.27c-.623-1.572-.48-5.3-.48-7.039s-.139-5.472.48-7.039A4.03,4.03,0,0,1,4.9,4.868c1.572-.623,5.3-.48,7.039-.48s5.472-.139,7.039.48a4.03,4.03,0,0,1,2.27,2.27c.623,1.572.48,5.3.48,7.039S21.871,19.649,21.247,21.215Z" transform="translate(0.005 -2.238)" fill="#fff"/>
</svg>
