<svg xmlns="http://www.w3.org/2000/svg" width="19.572" height="15.896" viewBox="0 0 19.572 15.896">
  <path id="Icon_awesome-twitter" data-name="Icon awesome-twitter" d="M17.56,7.342c.012.174.012.348.012.522A11.334,11.334,0,0,1,6.16,19.276,11.335,11.335,0,0,1,0,17.476a8.3,8.3,0,0,0,.969.05,8.033,8.033,0,0,0,4.98-1.714A4.018,4.018,0,0,1,2.2,13.03a5.058,5.058,0,0,0,.758.062,4.242,4.242,0,0,0,1.056-.137A4.012,4.012,0,0,1,.795,9.019v-.05a4.04,4.04,0,0,0,1.813.509A4.017,4.017,0,0,1,1.366,4.113a11.4,11.4,0,0,0,8.271,4.2,4.528,4.528,0,0,1-.1-.919,4.015,4.015,0,0,1,6.942-2.744,7.9,7.9,0,0,0,2.546-.969,4,4,0,0,1-1.763,2.21,8.041,8.041,0,0,0,2.31-.621A8.622,8.622,0,0,1,17.56,7.342Z" transform="translate(0 -3.381)" fill="#5c2705"/>
</svg>
