<svg xmlns="http://www.w3.org/2000/svg" width="23.87" height="23.87" viewBox="0 0 23.87 23.87">
  <path id="Icon_awesome-linkedin" data-name="Icon awesome-linkedin" d="M22.165,2.25H1.7A1.712,1.712,0,0,0,0,3.971V24.4A1.712,1.712,0,0,0,1.7,26.12H22.165A1.717,1.717,0,0,0,23.87,24.4V3.971A1.717,1.717,0,0,0,22.165,2.25ZM7.214,22.71H3.676V11.319H7.22V22.71ZM5.445,9.763A2.051,2.051,0,1,1,7.5,7.711,2.052,2.052,0,0,1,5.445,9.763ZM20.476,22.71H16.938V17.169c0-1.321-.027-3.021-1.838-3.021-1.844,0-2.126,1.439-2.126,2.925V22.71H9.436V11.319H12.83v1.556h.048a3.726,3.726,0,0,1,3.351-1.838c3.581,0,4.247,2.36,4.247,5.429Z" transform="translate(0 -2.25)" fill="#fff"/>
</svg>
