<svg xmlns="http://www.w3.org/2000/svg" width="27.28" height="22.157" viewBox="0 0 27.28 22.157">
  <path id="Icon_awesome-twitter" data-name="Icon awesome-twitter" d="M24.476,8.9c.017.242.017.485.017.727A15.8,15.8,0,0,1,8.586,25.537,15.8,15.8,0,0,1,0,23.027a11.566,11.566,0,0,0,1.35.069,11.2,11.2,0,0,0,6.941-2.389A5.6,5.6,0,0,1,3.064,16.83a7.051,7.051,0,0,0,1.056.087,5.913,5.913,0,0,0,1.471-.19,5.592,5.592,0,0,1-4.483-5.487V11.17a5.631,5.631,0,0,0,2.527.71A5.6,5.6,0,0,1,1.9,4.4a15.892,15.892,0,0,0,11.528,5.851,6.312,6.312,0,0,1-.138-1.281A5.6,5.6,0,0,1,22.97,5.146,11.008,11.008,0,0,0,26.519,3.8a5.576,5.576,0,0,1-2.458,3.081,11.208,11.208,0,0,0,3.22-.865,12.019,12.019,0,0,1-2.8,2.891Z" transform="translate(0 -3.381)" fill="#fff"/>
</svg>
