<svg xmlns="http://www.w3.org/2000/svg" width="25.993" height="20.793" viewBox="0 0 25.993 20.793">
  <path id="Icon_awesome-hands-helping" data-name="Icon awesome-hands-helping" d="M19.819,7.8H13.646v2.274a2.924,2.924,0,0,1-5.848,0V5.134L5.161,6.718A2.594,2.594,0,0,0,3.9,8.944v1.921L.649,12.741a1.3,1.3,0,0,0-.475,1.775l3.249,5.629a1.3,1.3,0,0,0,1.775.475L9.4,18.2h5.548a2.6,2.6,0,0,0,2.6-2.6h.65a1.3,1.3,0,0,0,1.3-1.3V11.7h.325a.972.972,0,0,0,.975-.975V8.773A.972.972,0,0,0,19.819,7.8Zm6-1.519L22.569.65A1.3,1.3,0,0,0,20.794.175L16.594,2.6H12.444a2.619,2.619,0,0,0-1.377.394l-1.361.849a1.291,1.291,0,0,0-.609,1.1v5.13a1.625,1.625,0,1,0,3.249,0V6.5h7.473a2.276,2.276,0,0,1,2.274,2.274V9.931l3.249-1.876a1.3,1.3,0,0,0,.475-1.775Z" transform="translate(0.002 -0.002)" fill="#c36500"/>
</svg>
