<svg xmlns="http://www.w3.org/2000/svg" width="39.341" height="63.526" viewBox="0 0 39.341 63.526">
  <path id="Path_18740" data-name="Path 18740" d="M134.588,30.375l-14.643-5.632a7.434,7.434,0,0,1-4.766-7.04,6.6,6.6,0,0,1,6.487-6.537,6.507,6.507,0,0,1,6.532,6.51,5.581,5.581,0,1,0,11.16-.133,17.671,17.671,0,0,0-35.341.133V53.946a5.586,5.586,0,0,0,5.58,5.58h24.181a5.586,5.586,0,0,0,5.58-5.58V37.318a7.483,7.483,0,0,0-4.77-6.944Zm-4.647,21.711H113.317a1.86,1.86,0,0,1,0-3.72h16.624a1.86,1.86,0,1,1,0,3.72Zm0-7.44H113.317a1.86,1.86,0,0,1,0-3.72h16.624a1.86,1.86,0,1,1,0,3.72Z" transform="translate(-102.017 2)" fill="none" stroke="#009d88" stroke-width="4"/>
</svg>
