<svg id="tent" xmlns="http://www.w3.org/2000/svg" width="55.798" height="55.798" viewBox="0 0 55.798 55.798">
  <g id="Group_7728" data-name="Group 7728" transform="translate(0 0)">
    <g id="Group_7727" data-name="Group 7727">
      <path id="Path_18784" data-name="Path 18784" d="M54.868,36.27a.93.93,0,0,0-.93.93v.911L28.83,4.344V.932a.93.93,0,0,0-1.86,0V4.344L23.882,8.5a6.974,6.974,0,0,0-13.3-1.407A5.1,5.1,0,0,0,1.861,10.7a4.829,4.829,0,0,0,.089.915A3.719,3.719,0,0,0,3.721,18.6H16.368L1.861,38.111V37.2A.93.93,0,0,0,0,37.2v3.72a.93.93,0,0,0,1.676.555l3.9-5.25V39.06a2.793,2.793,0,0,0,2.79,2.79H21.909a6.233,6.233,0,0,0-.607,1,6.038,6.038,0,0,0-.621,2.65,6.255,6.255,0,0,0,2.237,4.722H20.46a2.79,2.79,0,1,0,0,5.58H35.339a2.79,2.79,0,1,0,0-5.58H33.11c.1-.083.2-.163.287-.251A6.365,6.365,0,0,0,35.327,45.6h0a9.057,9.057,0,0,0-.005-1.035,11.167,11.167,0,0,0-.479-2.712H47.429a2.793,2.793,0,0,0,2.79-2.79V36.225l3.9,5.25A.93.93,0,0,0,55.8,40.92V37.2A.93.93,0,0,0,54.868,36.27ZM3.721,16.741a1.862,1.862,0,0,1-1.86-1.86,1.84,1.84,0,0,1,1.421-1.8.93.93,0,0,0,.663-1.22A3.42,3.42,0,0,1,3.721,10.7,3.244,3.244,0,0,1,10.1,9.836a.93.93,0,0,0,1.826-.219,5.112,5.112,0,0,1,10.221.15,4.9,4.9,0,0,1-.179,1.31l-4.213,5.665H3.721ZM35.339,52.08a.93.93,0,1,1,0,1.86H20.46a.93.93,0,1,1,0-1.86Zm-7.406-5.2c.049.132.2.531,1.058.783a2.794,2.794,0,0,0,.778.115,2.869,2.869,0,0,0,1.391-.337,2.511,2.511,0,0,1-1.242,2.48,6.218,6.218,0,0,1-1.9.3c-.16,0-.317-.009-.473-.021-.655-.308-2.387-1.244-2.4-2.534a1.825,1.825,0,0,1,.683-1.362,6.536,6.536,0,0,1,.657-.469,8.066,8.066,0,0,0,.86-.624,3.626,3.626,0,0,0,1.217-1.816,2.718,2.718,0,0,1,.144.426,2.126,2.126,0,0,1,.06.373,3.3,3.3,0,0,1-.738,1.85A.941.941,0,0,0,27.934,46.876ZM33.47,45.5a4.893,4.893,0,0,1-.451,1.847,4.043,4.043,0,0,0-.083-.488,4.759,4.759,0,0,0-.324-.91,3.867,3.867,0,0,0-.281-.5c-.014-.02-.074-.1-.148-.183l-.069-.079a.93.93,0,0,0-1.623.182c-.006.015-.012.03-.017.044-.028.075-.05.149-.071.223a.588.588,0,0,0-.018.076.275.275,0,0,1-.089.081,3.657,3.657,0,0,0,.324-1.752,3.985,3.985,0,0,0-.109-.67,4.788,4.788,0,0,0-1.98-2.806c-.014-.01-.079-.048-.13-.076a.928.928,0,0,0-.621-.255.942.942,0,0,0-.949.911v0c0,.2,0,.394,0,.59a4.78,4.78,0,0,1-.062,1.143,1.8,1.8,0,0,1-.64.918,6.425,6.425,0,0,1-.673.483,8.26,8.26,0,0,0-.844.61,3.681,3.681,0,0,0-1.332,2.789c0,.073.017.143.023.215a4.211,4.211,0,0,1-.767-2.4,4.166,4.166,0,0,1,.43-1.828,4,4,0,0,1,.713-1.046,2.924,2.924,0,0,0,.9-1.529c.009-.056.008-.111.013-.167l0-.008v0a2.519,2.519,0,0,0-1.392-2.346,3.54,3.54,0,0,1,1.283.073.93.93,0,0,0,1.1-1.131c-.3-1.222-.257-3.43,1.812-3.954a3.326,3.326,0,0,1,1.446,0,3.152,3.152,0,0,0-.228,1.052,5.179,5.179,0,0,0,1.542,3.617,15.877,15.877,0,0,1,2.425,3.012,7.876,7.876,0,0,1,.876,3.433A7.259,7.259,0,0,1,33.47,45.5ZM34,39.99a19.093,19.093,0,0,0-2.483-3.043A3.413,3.413,0,0,1,30.48,34.7a1.256,1.256,0,0,1,.455-.932l.008-.006a.93.93,0,0,0-.406-1.6c-.1-.032-.3-.108-.485-.174-.226-.082-.426-.151-.458-.159a5.318,5.318,0,0,0-2.647-.069A4.561,4.561,0,0,0,23.6,36.682a3.832,3.832,0,0,0-2.769,1.076,1.27,1.27,0,0,0-.328,1.232,1.288,1.288,0,0,0,.925.9c.119.03.24.066.35.1H13.686l10.149-17.91c.007-.012.014-.024.02-.036L27.9,14.908l4.05,7.147.014.025L42.113,39.99Zm-20.975-2.6V34.477a3.7,3.7,0,0,1,1.089-2.63l4.739-4.739Zm23.93-10.285,4.739,4.739a3.7,3.7,0,0,1,1.089,2.63v2.916ZM48.359,39.06a.931.931,0,0,1-.93.93h-2.79V34.477A5.542,5.542,0,0,0,43,30.531l-9.494-9.494L28.83,12.776V10.231a.93.93,0,0,0-1.86,0v2.544l-4.681,8.261-9.494,9.494a5.543,5.543,0,0,0-1.634,3.945V39.99H8.37a.931.931,0,0,1-.93-.93V33.724L23.527,12.091c.007-.008.012-.017.019-.026L27.9,6.21,48.359,33.724V39.06Z" transform="translate(0 -0.002)" fill="#009d88"/>
      <path id="Path_18785" data-name="Path 18785" d="M376.038,16.153h0a.872.872,0,0,0-.1.065.655.655,0,0,0-.336.337.852.852,0,0,0-.062.091v.007a.93.93,0,0,0-.069.334c0,.007,0,.014,0,.021s.009.034.01.051a.934.934,0,0,0,.061.3l0,.008a.919.919,0,0,0,.175.265c.018.019.039.034.059.052a.914.914,0,0,0,.216.148c.016.008.026.022.043.03a9.178,9.178,0,0,0,3.619.735,9.3,9.3,0,0,0,0-18.6,9.176,9.176,0,0,0-3.6.727l-.011,0-.009,0a.872.872,0,0,0-.079.054.91.91,0,0,0-.215.147.911.911,0,0,0-.123.18.882.882,0,0,0-.076.112l0,.008a.933.933,0,0,0-.061.3c0,.017-.01.034-.01.051s0,.014,0,.021a.933.933,0,0,0,.069.334v.007a.875.875,0,0,0,.063.091.917.917,0,0,0,.138.2.908.908,0,0,0,.2.135.87.87,0,0,0,.095.065,7.437,7.437,0,0,1,0,13.7ZM382.444,9.3a9.258,9.258,0,0,0-3.675-7.382,7.44,7.44,0,1,1,0,14.764A9.257,9.257,0,0,0,382.444,9.3Z" transform="translate(-334.55 -0.002)" fill="#009d88"/>
      <path id="Path_18786" data-name="Path 18786" d="M57.825,402.935a.93.93,0,0,0-.855.365l-1.116,1.488V402a.93.93,0,1,0-1.86,0v2.79L52.878,403.3a.93.93,0,1,0-1.488,1.116l2.79,3.72c.012.016.031.022.044.037a1.925,1.925,0,0,0,.31.243.873.873,0,0,0,.78,0,1.926,1.926,0,0,0,.31-.243c.013-.015.032-.021.044-.037l2.79-3.72a.93.93,0,0,0-.633-1.481Z" transform="translate(-45.624 -357.36)" fill="#009d88"/>
      <path id="Path_18787" data-name="Path 18787" d="M399.158,402.935a.93.93,0,0,0-.855.365l-1.116,1.488V402a.93.93,0,1,0-1.86,0v2.79l-1.116-1.488a.93.93,0,1,0-1.488,1.116l2.79,3.72c.012.016.031.022.044.037a1.927,1.927,0,0,0,.31.243.873.873,0,0,0,.78,0,1.925,1.925,0,0,0,.31-.243c.013-.015.032-.021.044-.037l2.79-3.72a.93.93,0,0,0-.632-1.481Z" transform="translate(-349.759 -357.36)" fill="#009d88"/>
    </g>
  </g>
</svg>
